<?xml version="1.0" encoding="utf-8"?>
<!-- Generator: Adobe Illustrator 16.0.0, SVG Export Plug-In . SVG Version: 6.00 Build 0)  -->
<!DOCTYPE svg PUBLIC "-//W3C//DTD SVG 1.1//EN" "http://www.w3.org/Graphics/SVG/1.1/DTD/svg11.dtd">
<svg version="1.1" id="Layer_1" xmlns="http://www.w3.org/2000/svg" xmlns:xlink="http://www.w3.org/1999/xlink" x="0px" y="0px"
	 width="90px" height="50px" viewBox="15 7 80 50" enable-background="new 0 0 90 50" xml:space="preserve">
<g>
	<g>
		<path fill="#31251C" d="M39.833,24.154c0,0,0.903-0.013,2.484-0.04c1.581-0.019,3.839-0.069,6.548-0.096
			c2.707-0.016,5.87-0.061,9.256-0.068c3.389-0.01,7.002-0.021,10.613-0.033c3.609,0.012,7.225,0.023,10.611,0.033
			s6.549,0.053,9.258,0.072c2.707,0.022,4.965,0.073,6.547,0.092c1.58,0.027,2.484,0.04,2.484,0.04v0.027H39.833V24.154z"/>
		<path fill="#31251C" d="M97.387,48.584c0,0-0.902,0.014-2.484,0.039c-1.578,0.02-3.838,0.074-6.547,0.094
			s-5.867,0.064-9.258,0.072c-3.387,0.008-6.998,0.02-10.611,0.031c-3.613-0.012-7.227-0.023-10.609-0.031
			c-3.389-0.008-6.551-0.053-9.26-0.072c-2.707-0.023-4.967-0.074-6.548-0.094c-1.58-0.025-2.483-0.039-2.483-0.039v-0.029h57.801
			V48.584z"/>
		<path fill="#31251C" d="M45.558,32.361c-0.692,1.457-1.686,3.018-2.557,4.033c-0.163-0.133-0.504-0.369-0.701-0.494
			c0.909-0.936,1.865-2.412,2.49-3.785L45.558,32.361z M50.775,30.305v0.72h-8.342v-0.72H50.775z M46.427,27.852
			c0.331,0.627,0.732,1.458,0.919,1.943l-0.757,0.292c-0.179-0.492-0.559-1.354-0.869-1.988L46.427,27.852z M48.228,32.037
			c0.881,1.232,2.037,2.908,2.595,3.893l-0.71,0.406c-0.521-0.994-1.656-2.717-2.535-3.984L48.228,32.037z"/>
		<path fill="#31251C" d="M59.613,32.967c-0.121-0.312-0.426-0.861-0.682-1.326v4.811h-0.652v-4.564
			c-0.238,0.975-0.559,1.979-0.871,2.623c-0.076-0.207-0.248-0.521-0.35-0.691c0.443-0.814,0.918-2.348,1.129-3.532h-0.996v-0.662
			h1.088v-1.818h0.652v1.818h0.947v0.662h-0.947v0.493c0.246,0.33,0.939,1.431,1.111,1.685L59.613,32.967z M64.66,34.141
			c-0.188,0.445-0.455,0.814-0.832,1.145c0.711,0.227,1.373,0.475,1.865,0.703l-0.521,0.443c-0.473-0.236-1.166-0.51-1.93-0.758
			c-0.691,0.371-1.648,0.635-3.002,0.807c-0.049-0.152-0.164-0.398-0.266-0.521c1.07-0.123,1.875-0.295,2.48-0.541
			c-0.615-0.18-1.238-0.35-1.818-0.482c0.217-0.225,0.463-0.502,0.701-0.795h-1.262v-0.559h1.697
			c0.172-0.236,0.33-0.473,0.465-0.701h-1.811v-1.535h2.139v-0.471h-1.939v-0.977h-0.551v-0.549h0.551v-0.937h1.939v-0.606h0.666
			v0.606h1.939v0.937h0.588v0.549h-0.588v0.977h-1.939v0.471h2.18v1.535h-2.434c-0.135,0.229-0.297,0.465-0.467,0.701h1.693
			c0.039-0.133,0.078-0.275,0.105-0.406h0.635c-0.027,0.131-0.066,0.273-0.084,0.406h0.973v0.559H64.66z M61.062,32.406h1.504V31.83
			h-1.504V32.406z M61.242,28.885v0.521h1.324v-0.521H61.242z M62.566,30.4v-0.567h-1.324V30.4H62.566z M62.094,34.141
			c-0.158,0.189-0.301,0.369-0.443,0.531c0.484,0.113,0.994,0.246,1.506,0.396c0.377-0.256,0.645-0.566,0.834-0.928H62.094z
			 M63.232,28.885v0.521h1.307v-0.521H63.232z M64.539,30.4v-0.567h-1.307V30.4H64.539z M63.232,31.83v0.576h1.514V31.83H63.232z"/>
		<path fill="#31251C" d="M76.814,31.234c0.662,2.082,1.895,3.797,3.721,4.545c-0.17,0.162-0.406,0.455-0.527,0.662
			c-1.82-0.861-3.021-2.537-3.771-4.688c-0.453,1.816-1.477,3.635-3.779,4.688c-0.102-0.189-0.33-0.434-0.529-0.578
			c2.35-1.021,3.295-2.838,3.688-4.629h-3.498v-0.72h3.607c0.143-0.994,0.135-1.942,0.143-2.69h0.758
			c-0.01,0.76-0.018,1.696-0.152,2.69h3.914v0.72H76.814z"/>
		<path fill="#31251C" d="M94.785,35.57v0.625h-8.211V35.57h3.732v-1.137H87.4v-0.615h2.906v-0.938H88.07v-2.187h5.229v2.187h-2.301
			v0.938h3.068v0.615h-3.068v1.137H94.785z M87.297,31.383h-0.645v-2.062h1.629c-0.18-0.341-0.484-0.804-0.768-1.154l0.615-0.247
			c0.34,0.379,0.711,0.891,0.871,1.24l-0.352,0.161h1.658v-1.515h0.691v1.515h1.742l-0.408-0.161c0.287-0.35,0.658-0.9,0.865-1.278
			l0.719,0.255c-0.305,0.427-0.654,0.871-0.957,1.185h1.762v2.062h-0.682v-1.436h-6.742V31.383z M88.734,32.314h3.873v-1.051h-3.873
			V32.314z"/>
		<g>
			<path fill="#31251C" d="M46.134,41.484h-0.266c-0.064-0.188-0.179-0.385-0.344-0.594c-0.166-0.211-0.323-0.326-0.473-0.346
				c-0.067-0.01-0.158-0.018-0.271-0.025c-0.111-0.006-0.217-0.01-0.311-0.01h-0.745v1.883h0.474c0.141,0,0.256-0.016,0.354-0.045
				c0.101-0.031,0.188-0.086,0.263-0.166c0.06-0.055,0.114-0.148,0.164-0.283c0.055-0.131,0.088-0.246,0.098-0.34h0.256v2.023
				h-0.256c-0.01-0.104-0.043-0.227-0.105-0.373c-0.061-0.146-0.114-0.238-0.156-0.289c-0.062-0.07-0.146-0.123-0.249-0.16
				c-0.103-0.035-0.224-0.053-0.368-0.053h-0.474v1.592c0,0.082,0.015,0.15,0.045,0.211c0.03,0.057,0.089,0.102,0.175,0.139
				c0.049,0.02,0.117,0.039,0.202,0.057c0.089,0.016,0.176,0.027,0.261,0.037v0.266h-2.59v-0.266
				c0.064-0.006,0.151-0.016,0.261-0.027c0.107-0.014,0.183-0.029,0.228-0.047c0.079-0.033,0.135-0.074,0.168-0.131
				c0.031-0.057,0.048-0.131,0.048-0.217V40.93c0-0.076-0.015-0.145-0.044-0.203c-0.027-0.059-0.086-0.104-0.172-0.141
				c-0.065-0.027-0.148-0.053-0.252-0.076c-0.103-0.021-0.182-0.037-0.236-0.043v-0.266h4.316V41.484z"/>
			<path fill="#31251C" d="M51.318,45.008h-2.615v-0.266c0.12-0.01,0.265-0.029,0.429-0.064c0.165-0.037,0.247-0.08,0.247-0.131
				c0-0.02-0.003-0.037-0.008-0.062c-0.002-0.021-0.012-0.051-0.027-0.092l-0.411-0.994h-1.658c-0.038,0.09-0.08,0.201-0.126,0.324
				c-0.046,0.125-0.084,0.234-0.121,0.332c-0.042,0.129-0.066,0.217-0.076,0.275c-0.006,0.055-0.01,0.096-0.01,0.117
				c0,0.072,0.054,0.135,0.164,0.186c0.109,0.051,0.291,0.086,0.545,0.109v0.266h-1.971v-0.266c0.074-0.004,0.16-0.016,0.252-0.035
				c0.096-0.02,0.17-0.047,0.225-0.08c0.091-0.055,0.168-0.121,0.234-0.199c0.064-0.08,0.117-0.172,0.158-0.281
				c0.265-0.633,0.526-1.27,0.79-1.906c0.265-0.639,0.554-1.338,0.873-2.107h0.677c0.441,1.09,0.789,1.951,1.037,2.582
				c0.25,0.631,0.465,1.154,0.641,1.57c0.029,0.068,0.067,0.129,0.113,0.186c0.044,0.055,0.108,0.107,0.191,0.156
				c0.062,0.037,0.137,0.062,0.221,0.082c0.085,0.018,0.16,0.029,0.227,0.033V45.008z M48.794,43.062l-0.697-1.736l-0.684,1.736
				H48.794z"/>
			<path fill="#31251C" d="M56.879,45.008h-1.845c-0.316-0.488-0.581-0.877-0.792-1.166c-0.211-0.287-0.473-0.625-0.787-1.002
				h-0.187v1.459c0,0.082,0.017,0.15,0.048,0.207c0.029,0.057,0.086,0.104,0.174,0.143c0.043,0.016,0.109,0.035,0.201,0.057
				c0.09,0.018,0.17,0.031,0.234,0.037v0.266h-2.562v-0.266c0.063-0.006,0.149-0.016,0.26-0.027
				c0.105-0.014,0.182-0.029,0.229-0.047c0.084-0.035,0.143-0.082,0.172-0.139c0.029-0.055,0.045-0.123,0.045-0.209V40.93
				c0-0.082-0.014-0.148-0.039-0.203s-0.084-0.102-0.178-0.141c-0.072-0.029-0.159-0.057-0.256-0.076
				c-0.1-0.02-0.175-0.035-0.232-0.043v-0.266h2.695c0.602,0,1.061,0.094,1.374,0.283c0.312,0.188,0.467,0.473,0.467,0.855
				c0,0.336-0.096,0.607-0.29,0.811c-0.191,0.205-0.485,0.365-0.881,0.479c0.154,0.197,0.333,0.43,0.54,0.691
				c0.202,0.262,0.413,0.529,0.635,0.803c0.069,0.088,0.166,0.195,0.287,0.324c0.121,0.127,0.229,0.205,0.318,0.234
				c0.055,0.016,0.119,0.031,0.199,0.041s0.141,0.018,0.172,0.02V45.008z M54.574,41.436c0-0.32-0.092-0.555-0.27-0.705
				c-0.181-0.145-0.436-0.221-0.768-0.221h-0.269v2.01h0.258c0.333,0,0.589-0.086,0.773-0.26
				C54.482,42.088,54.574,41.812,54.574,41.436z"/>
			<path fill="#31251C" d="M62.725,45.008h-1.844c-0.32-0.488-0.582-0.877-0.793-1.166c-0.213-0.287-0.475-0.625-0.787-1.002h-0.188
				v1.459c0,0.082,0.018,0.15,0.047,0.207s0.09,0.104,0.176,0.143c0.043,0.016,0.109,0.035,0.201,0.057
				c0.09,0.018,0.172,0.031,0.234,0.037v0.266h-2.562v-0.266c0.064-0.006,0.15-0.016,0.258-0.027
				c0.109-0.014,0.186-0.029,0.229-0.047c0.086-0.035,0.145-0.082,0.172-0.139c0.031-0.055,0.045-0.123,0.045-0.209V40.93
				c0-0.082-0.012-0.148-0.035-0.203c-0.025-0.055-0.086-0.102-0.182-0.141c-0.072-0.029-0.156-0.057-0.254-0.076
				c-0.1-0.02-0.178-0.035-0.232-0.043v-0.266h2.693c0.604,0,1.061,0.094,1.373,0.283c0.312,0.188,0.471,0.473,0.471,0.855
				c0,0.336-0.098,0.607-0.289,0.811c-0.195,0.205-0.488,0.365-0.883,0.479c0.154,0.197,0.334,0.43,0.537,0.691
				c0.205,0.262,0.418,0.529,0.639,0.803c0.068,0.088,0.164,0.195,0.285,0.324c0.121,0.127,0.229,0.205,0.32,0.234
				c0.053,0.016,0.115,0.031,0.197,0.041c0.08,0.01,0.139,0.018,0.172,0.02V45.008z M60.418,41.436c0-0.32-0.088-0.555-0.27-0.705
				c-0.178-0.145-0.436-0.221-0.766-0.221h-0.27v2.01h0.26c0.33,0,0.588-0.086,0.771-0.26
				C60.326,42.088,60.418,41.812,60.418,41.436z"/>
			<path fill="#31251C" d="M65.701,45.008h-2.666v-0.266c0.061-0.004,0.15-0.01,0.27-0.02c0.117-0.01,0.201-0.023,0.246-0.041
				c0.082-0.033,0.141-0.078,0.172-0.133c0.029-0.057,0.043-0.129,0.043-0.213V40.93c0-0.076-0.014-0.145-0.043-0.203
				s-0.088-0.105-0.172-0.141c-0.055-0.023-0.135-0.047-0.242-0.068c-0.104-0.027-0.195-0.043-0.273-0.051v-0.266h2.666v0.266
				c-0.068,0.006-0.152,0.016-0.254,0.027c-0.104,0.012-0.188,0.029-0.258,0.053c-0.09,0.029-0.146,0.074-0.176,0.139
				c-0.029,0.061-0.045,0.131-0.045,0.209v3.404c0,0.082,0.016,0.15,0.045,0.211c0.029,0.057,0.09,0.102,0.176,0.139
				c0.047,0.02,0.125,0.039,0.234,0.059s0.201,0.031,0.277,0.035V45.008z"/>
			<path fill="#31251C" d="M70.586,41.428h-0.258c-0.066-0.182-0.178-0.367-0.338-0.553c-0.16-0.188-0.318-0.299-0.477-0.33
				c-0.068-0.018-0.162-0.027-0.285-0.027c-0.119-0.008-0.221-0.008-0.299-0.008H68.23v1.852h0.496c0.123,0,0.236-0.014,0.338-0.043
				s0.195-0.086,0.277-0.17c0.055-0.051,0.104-0.143,0.158-0.273c0.053-0.131,0.09-0.244,0.104-0.344h0.258v2.006h-0.258
				c-0.014-0.096-0.049-0.213-0.104-0.357c-0.055-0.143-0.107-0.244-0.158-0.295c-0.072-0.082-0.16-0.139-0.262-0.168
				c-0.102-0.031-0.219-0.045-0.354-0.045H68.23v1.383c0,0.145,0.012,0.26,0.033,0.344c0.021,0.086,0.064,0.15,0.121,0.197
				c0.057,0.039,0.135,0.068,0.232,0.082c0.1,0.014,0.23,0.02,0.398,0.02c0.082,0,0.176,0,0.289-0.002
				c0.109-0.004,0.205-0.01,0.289-0.02c0.096-0.012,0.184-0.029,0.268-0.051c0.082-0.023,0.143-0.057,0.186-0.1
				c0.105-0.109,0.227-0.277,0.361-0.504c0.137-0.229,0.225-0.398,0.27-0.512h0.248l-0.094,1.498h-4.506v-0.266
				c0.061-0.004,0.15-0.014,0.256-0.027c0.109-0.014,0.188-0.029,0.23-0.047c0.086-0.035,0.145-0.082,0.174-0.139
				c0.029-0.055,0.043-0.123,0.043-0.209V40.93c0-0.082-0.012-0.148-0.037-0.203c-0.021-0.053-0.084-0.1-0.18-0.141
				c-0.057-0.027-0.141-0.053-0.246-0.076c-0.107-0.021-0.186-0.037-0.24-0.043v-0.266h4.26V41.428z"/>
			<path fill="#31251C" d="M76.727,45.008h-1.844c-0.32-0.488-0.584-0.877-0.793-1.166c-0.213-0.287-0.475-0.625-0.787-1.002h-0.186
				v1.459c0,0.082,0.018,0.15,0.045,0.207c0.031,0.057,0.09,0.104,0.174,0.143c0.043,0.016,0.109,0.035,0.201,0.057
				c0.094,0.018,0.17,0.031,0.236,0.037v0.266h-2.564v-0.266c0.066-0.006,0.152-0.016,0.262-0.027
				c0.107-0.014,0.182-0.029,0.227-0.047c0.088-0.035,0.143-0.082,0.174-0.139c0.027-0.055,0.043-0.123,0.043-0.209V40.93
				c0-0.082-0.014-0.148-0.037-0.203s-0.082-0.102-0.18-0.141c-0.072-0.029-0.158-0.057-0.254-0.076
				c-0.1-0.02-0.176-0.035-0.234-0.043v-0.266h2.697c0.602,0,1.059,0.094,1.371,0.283c0.312,0.188,0.469,0.473,0.469,0.855
				c0,0.336-0.094,0.607-0.287,0.811c-0.195,0.205-0.49,0.365-0.883,0.479c0.154,0.197,0.332,0.43,0.537,0.691
				c0.203,0.262,0.416,0.529,0.639,0.803c0.068,0.088,0.164,0.195,0.285,0.324c0.121,0.127,0.227,0.205,0.32,0.234
				c0.051,0.016,0.117,0.031,0.199,0.041c0.076,0.01,0.137,0.018,0.17,0.02V45.008z M74.42,41.436c0-0.32-0.09-0.555-0.27-0.705
				c-0.178-0.145-0.434-0.221-0.766-0.221h-0.268v2.01h0.258c0.332,0,0.588-0.086,0.771-0.26
				C74.33,42.088,74.42,41.812,74.42,41.436z"/>
			<path fill="#31251C" d="M83.012,40.734c0.238,0.219,0.426,0.48,0.564,0.789c0.139,0.305,0.209,0.656,0.209,1.049
				c0,0.35-0.062,0.684-0.176,1c-0.117,0.314-0.289,0.586-0.51,0.816c-0.23,0.236-0.504,0.422-0.818,0.551
				c-0.314,0.133-0.689,0.199-1.121,0.199c-0.348,0-0.682-0.057-0.994-0.174c-0.311-0.111-0.584-0.281-0.82-0.5
				c-0.236-0.215-0.424-0.475-0.561-0.781s-0.205-0.65-0.205-1.025c0-0.395,0.068-0.75,0.201-1.068
				c0.133-0.322,0.32-0.594,0.551-0.822c0.234-0.223,0.512-0.395,0.83-0.516c0.32-0.123,0.662-0.182,1.021-0.182
				c0.361,0,0.693,0.055,1.014,0.176C82.51,40.363,82.781,40.527,83.012,40.734z M82.143,44.176
				c0.102-0.205,0.176-0.438,0.221-0.699c0.045-0.26,0.066-0.553,0.066-0.881c0-0.277-0.02-0.549-0.059-0.812
				c-0.041-0.264-0.105-0.498-0.201-0.705c-0.098-0.203-0.225-0.371-0.389-0.492c-0.158-0.125-0.357-0.189-0.598-0.189
				c-0.408,0-0.719,0.195-0.932,0.584c-0.213,0.387-0.316,0.936-0.316,1.643c0,0.301,0.021,0.584,0.07,0.854
				c0.045,0.264,0.115,0.496,0.215,0.697c0.104,0.201,0.23,0.355,0.389,0.467c0.154,0.113,0.344,0.17,0.574,0.17
				c0.223,0,0.416-0.057,0.576-0.17C81.918,44.527,82.047,44.375,82.143,44.176z"/>
			<path fill="#31251C" d="M89.678,40.467c-0.062,0.006-0.152,0.02-0.27,0.037c-0.119,0.018-0.225,0.061-0.316,0.131
				c-0.084,0.061-0.146,0.164-0.182,0.312c-0.033,0.15-0.049,0.367-0.049,0.652v3.434h-0.605l-2.992-3.715v2.256
				c0,0.281,0.018,0.492,0.057,0.639c0.035,0.145,0.096,0.252,0.182,0.318c0.059,0.051,0.158,0.096,0.289,0.133
				c0.135,0.037,0.24,0.064,0.318,0.078v0.266h-2.066v-0.266c0.088-0.006,0.191-0.023,0.305-0.049s0.209-0.066,0.287-0.121
				c0.088-0.062,0.146-0.162,0.18-0.293c0.033-0.133,0.049-0.357,0.049-0.666v-2.277c0-0.111-0.018-0.219-0.053-0.32
				c-0.033-0.1-0.088-0.186-0.162-0.26c-0.082-0.076-0.17-0.135-0.273-0.18c-0.104-0.043-0.221-0.08-0.352-0.104v-0.271h1.809
				l2.627,3.25v-1.816c0-0.293-0.02-0.506-0.057-0.646s-0.098-0.246-0.18-0.312c-0.066-0.053-0.166-0.098-0.295-0.135
				c-0.129-0.035-0.232-0.061-0.311-0.074v-0.266h2.061V40.467z"/>
			<path fill="#31251C" d="M95.42,43.439c0,0.479-0.182,0.879-0.539,1.201c-0.361,0.322-0.822,0.484-1.381,0.484
				c-0.586,0-1.055-0.182-1.41-0.551c-0.354-0.365-0.531-0.859-0.531-1.477c0-0.828,0.281-1.508,0.838-2.049
				s1.312-0.867,2.271-0.979l0.078,0.334l-0.361,0.062c-0.273,0.074-0.498,0.176-0.684,0.305c-0.186,0.131-0.336,0.279-0.457,0.447
				c-0.113,0.158-0.205,0.34-0.27,0.543c-0.066,0.201-0.115,0.4-0.148,0.598c0.195-0.178,0.391-0.297,0.582-0.357
				c0.193-0.059,0.4-0.09,0.623-0.09c0.389,0,0.717,0.143,0.986,0.424C95.285,42.619,95.42,42.986,95.42,43.439z M94.166,43.531
				c0-0.355-0.061-0.641-0.188-0.852c-0.125-0.209-0.295-0.314-0.504-0.314c-0.139,0-0.262,0.025-0.363,0.072
				c-0.104,0.049-0.207,0.146-0.311,0.297c0,0.012,0,0.031,0,0.061c-0.002,0.027-0.006,0.064-0.006,0.109
				c-0.002,0.049-0.004,0.098-0.004,0.139c-0.004,0.041-0.004,0.078-0.004,0.107c0,0.543,0.066,0.957,0.197,1.246
				c0.135,0.287,0.301,0.432,0.512,0.432c0.201,0,0.363-0.113,0.484-0.34C94.105,44.264,94.166,43.943,94.166,43.531z"/>
		</g>
		<g>
			<g>
				<g>
					<defs>
						<path id="SVGID_1_" d="M26.728,10.382c-3.133,2.941-6.583,6.396-10.715,13.15c-4.055,6.626-5.82,19.143,2.17,23.819
							c3.521,2.061,9.513,3.174,14.542,0c3.8-2.396,6.362-8.262,4.214-13.963c-1.552-4.116-4.65-7.632-6.306-9.29h-3.36
							c1.701,1.778,5.185,6.558,5.185,11.698c0,2.268-0.855,6.125-6.359,6.125c-9.36,0-8.189-14.41-2.503-23.096
							c3.434-5.243,4-6.175,5.962-8.443H26.728z"/>
					</defs>
					<linearGradient id="SVGID_2_" gradientUnits="userSpaceOnUse" x1="32.2109" y1="61.1924" x2="17.6988" y2="11.9845">
						<stop  offset="0" style="stop-color:#31251C"/>
						<stop  offset="0.2348" style="stop-color:#34281D"/>
						<stop  offset="0.3832" style="stop-color:#3C2F21"/>
						<stop  offset="0.5077" style="stop-color:#4B3B28"/>
						<stop  offset="0.6191" style="stop-color:#604C32"/>
						<stop  offset="0.7215" style="stop-color:#7B623F"/>
						<stop  offset="0.8161" style="stop-color:#9B7D4E"/>
						<stop  offset="0.9" style="stop-color:#BF9B5F"/>
						<stop  offset="0.925" style="stop-color:#C09C61"/>
						<stop  offset="0.9392" style="stop-color:#C3A169"/>
						<stop  offset="0.9507" style="stop-color:#C9AA77"/>
						<stop  offset="0.9608" style="stop-color:#D1B68B"/>
						<stop  offset="0.9699" style="stop-color:#DBC7A5"/>
						<stop  offset="0.9784" style="stop-color:#E8DAC4"/>
						<stop  offset="0.9862" style="stop-color:#F7F1E9"/>
						<stop  offset="0.99" style="stop-color:#FFFFFE"/>
					</linearGradient>
					<use xlink:href="#SVGID_1_"  overflow="visible" fill="url(#SVGID_2_)"/>
					<clipPath id="SVGID_3_">
						<use xlink:href="#SVGID_1_"  overflow="visible"/>
					</clipPath>
				</g>
			</g>
			<g>
				<path fill="#FFFFFF" d="M25.152,14.829c0,0-0.496,0.587-0.669,0.801s-0.399,0.506-0.624,0.793
					c-0.225,0.29-0.444,0.583-0.608,0.804c-0.159,0.222-0.267,0.368-0.267,0.368l-0.933-0.737c0,0,0.126-0.142,0.312-0.354
					c0.189-0.212,0.443-0.488,0.702-0.761c0.257-0.275,0.522-0.539,0.722-0.738l0.336-0.329L25.152,14.829z"/>
				<path fill="#FFFFFF" d="M22.357,18.77c0,0-0.094,0.155-0.236,0.391c-0.142,0.234-0.326,0.546-0.504,0.861
					c-0.178,0.316-0.352,0.638-0.477,0.88c-0.126,0.24-0.209,0.4-0.209,0.4l-1.338-0.738c0,0,0.095-0.165,0.244-0.404
					c0.149-0.245,0.355-0.564,0.562-0.879c0.211-0.318,0.425-0.628,0.59-0.859c0.082-0.117,0.151-0.212,0.199-0.28
					c0.048-0.066,0.075-0.104,0.075-0.104L22.357,18.77z"/>
				<path fill="#FFFFFF" d="M20.261,22.64c0,0-0.082,0.161-0.205,0.404c-0.121,0.239-0.273,0.566-0.426,0.893
					c-0.303,0.651-0.558,1.315-0.558,1.315l-1.63-0.674c0,0,0.308-0.707,0.661-1.386c0.177-0.343,0.362-0.675,0.509-0.924
					c0.141-0.245,0.237-0.41,0.237-0.41L20.261,22.64z"/>
				<path fill="#FFFFFF" d="M18.558,26.771c0,0-0.056,0.171-0.141,0.425c-0.084,0.253-0.189,0.591-0.281,0.929
					c-0.19,0.679-0.316,1.37-0.316,1.37l-1.883-0.38c0,0,0.04-0.191,0.109-0.478c0.07-0.285,0.172-0.663,0.285-1.035
					c0.115-0.374,0.24-0.741,0.34-1.014c0.051-0.132,0.098-0.257,0.125-0.33c0.03-0.074,0.047-0.118,0.047-0.118L18.558,26.771z"/>
				<path fill="#FFFFFF" d="M17.578,31.025c0,0-0.009,0.045-0.023,0.125c-0.014,0.074-0.031,0.182-0.055,0.309
					c-0.039,0.26-0.086,0.602-0.115,0.945c-0.032,0.346-0.05,0.688-0.06,0.945c-0.008,0.256-0.008,0.426-0.008,0.426l-1.962,0.033
					c0,0-0.006-0.201,0-0.5c0-0.301,0.016-0.697,0.057-1.09c0.041-0.395,0.096-0.785,0.147-1.078
					c0.022-0.146,0.048-0.266,0.062-0.352c0.016-0.08,0.024-0.126,0.024-0.126L17.578,31.025z"/>
				<path fill="#FFFFFF" d="M17.402,35.121c0,0,0.005,0.049,0.016,0.127c0.004,0.037,0.012,0.086,0.017,0.141
					c0.009,0.049,0.015,0.102,0.027,0.164c0.038,0.246,0.104,0.58,0.183,0.904c0.084,0.322,0.188,0.643,0.271,0.877
					c0.085,0.236,0.152,0.391,0.152,0.391l-1.511,0.746c0,0-0.104-0.176-0.235-0.455c-0.14-0.273-0.294-0.648-0.421-1.037
					c-0.066-0.191-0.127-0.387-0.178-0.572c-0.049-0.184-0.086-0.354-0.119-0.502c-0.016-0.078-0.03-0.148-0.043-0.211
					c-0.012-0.059-0.021-0.109-0.027-0.15c-0.014-0.078-0.025-0.125-0.025-0.125L17.402,35.121z"/>
			</g>
			<g>
				<path fill="#FFFFFF" d="M31.43,26.575c0,0,0.124,0.142,0.305,0.358c0.181,0.214,0.415,0.511,0.646,0.813
					c0.223,0.301,0.446,0.608,0.608,0.847c0.156,0.237,0.264,0.397,0.264,0.397l-1.113,0.627c0,0-0.081-0.162-0.199-0.408
					c-0.123-0.241-0.288-0.568-0.461-0.889c-0.172-0.323-0.497-0.814-0.564-0.939c-0.064-0.126-0.486-0.726-0.486-0.726
					L31.43,26.575z"/>
				<path fill="#FFFFFF" d="M33.997,30.369c0,0,0.026,0.04,0.068,0.109c0.021,0.036,0.048,0.081,0.077,0.129
					c0.029,0.055,0.064,0.113,0.101,0.177c0.148,0.255,0.329,0.607,0.491,0.972c0.162,0.361,0.303,0.738,0.395,1.023
					c0.05,0.145,0.083,0.266,0.107,0.35c0.021,0.084,0.034,0.133,0.034,0.133l-1.636,0.398c0,0-0.035-0.168-0.098-0.414
					c-0.06-0.248-0.154-0.576-0.271-0.902c-0.113-0.324-0.25-0.645-0.354-0.885c-0.027-0.061-0.053-0.113-0.072-0.162
					c-0.021-0.049-0.042-0.092-0.06-0.129c-0.034-0.074-0.055-0.115-0.055-0.115L33.997,30.369z"/>
				<path fill="#FFFFFF" d="M35.707,34.834c0,0,0.007,0.047,0.021,0.127c0.004,0.02,0.007,0.043,0.011,0.066
					c0.004,0.027,0.01,0.059,0.014,0.09c0.006,0.057,0.017,0.121,0.024,0.191c0.02,0.156,0.037,0.328,0.051,0.516
					c0.011,0.188,0.024,0.389,0.03,0.59c0.006,0.402-0.006,0.805-0.037,1.107c-0.024,0.303-0.055,0.502-0.055,0.502l-1.769-0.229
					c0,0,0.023-0.166,0.04-0.418c0.02-0.25,0.033-0.588,0.025-0.928c-0.002-0.172-0.011-0.342-0.02-0.5
					c-0.01-0.158-0.022-0.312-0.035-0.432c-0.029-0.266-0.05-0.445-0.05-0.445L35.707,34.834z"/>
			</g>
		</g>
	</g>
</g>
</svg>
