<?xml version="1.0" encoding="utf-8"?>
<!-- Generator: Adobe Illustrator 16.0.0, SVG Export Plug-In . SVG Version: 6.00 Build 0)  -->
<!DOCTYPE svg PUBLIC "-//W3C//DTD SVG 1.1//EN" "http://www.w3.org/Graphics/SVG/1.1/DTD/svg11.dtd">
<svg version="1.1" id="Layer_1" xmlns="http://www.w3.org/2000/svg" xmlns:xlink="http://www.w3.org/1999/xlink" x="0px" y="0px"
	 width="50px" height="50px" viewBox="0 0 50 50" enable-background="new 0 0 50 50" xml:space="preserve">
<g>
	<path fill="#AEA299" d="M12.446,48.358c-0.824,0-1.755-0.513-2.167-1.198L1.713,32.939c-0.408-0.675-0.727-1.823-0.727-2.609V6.281
		c0-0.912,0.74-1.709,1.648-1.781l36.291-2.853c0.859-0.068,1.877,0.482,2.291,1.225l7.088,12.652
		c0.383,0.686,0.684,1.835,0.684,2.62v25.576c0,0.91-0.739,1.714-1.646,1.785L12.603,48.35C12.553,48.356,12.5,48.358,12.446,48.358
		z M39.073,2.406c-0.03,0-0.058,0-0.089,0.003L2.695,5.262c-0.512,0.04-0.943,0.506-0.943,1.02V30.33
		c0,0.646,0.279,1.66,0.615,2.217l8.566,14.219c0.289,0.483,1.031,0.87,1.608,0.825l34.74-2.844c0.51-0.042,0.941-0.513,0.941-1.026
		V18.145c0-0.649-0.269-1.68-0.585-2.247L40.553,3.246C40.293,2.784,39.631,2.406,39.073,2.406z"/>
	<path fill="#414142" d="M49.016,45.249c0,0.716-0.588,1.298-1.302,1.298H12.576c-0.714,0-1.572-0.515-1.904-1.146L1.591,28.195
		c-0.335-0.635-0.606-1.735-0.606-2.451V4.753c0-0.716,0.586-1.299,1.297-1.299h36.67c0.717,0,1.555,0.525,1.869,1.168l7.624,15.638
		c0.312,0.645,0.571,1.755,0.571,2.47V45.249z"/>
	<g>
		<path fill="#58595B" d="M12.398,16.774c-0.016,0-0.033-0.003-0.05-0.012c-0.069-0.028-0.098-0.105-0.069-0.174l3.87-8.949
			c0.03-0.068,0.108-0.097,0.173-0.068c0.068,0.028,0.1,0.105,0.07,0.173l-3.87,8.951C12.5,16.744,12.452,16.774,12.398,16.774z"/>
		<path fill="#58595B" d="M5.29,15.316c-0.055,0-0.106-0.039-0.124-0.092c-0.025-0.069,0.016-0.146,0.084-0.168l2.55-0.815
			l7.121-3.997l-1.833-1.445c-0.059-0.044-0.067-0.129-0.02-0.184c0.043-0.057,0.126-0.067,0.184-0.023l1.99,1.564
			c0.035,0.027,0.053,0.07,0.049,0.115c-0.002,0.042-0.029,0.081-0.068,0.104L7.92,14.479c-0.008,0.004-0.017,0.01-0.025,0.012
			L5.33,15.31C5.316,15.313,5.303,15.316,5.29,15.316z"/>
		<path fill="#58595B" d="M8.231,15.409c-0.052,0-0.101-0.032-0.124-0.082l-1.309-3.154C6.771,12.105,6.802,12.028,6.869,12
			c0.067-0.03,0.146,0.002,0.173,0.07l1.312,3.155c0.026,0.068-0.006,0.146-0.071,0.175C8.266,15.408,8.249,15.409,8.231,15.409z"/>
	</g>
	<g>
		<path fill="#AEA299" d="M27.31,14.699c-0.802-0.857-2.304-2.021-5.004-2.856c0,0,3.233-0.202,0.231-0.785
			c-0.221-0.07-0.516-0.184-0.84-0.312c0.957-0.069,1.408-0.388,1.408-0.388c-2.604-0.183-4.162-0.906-4.938-1.393
			c0.936-0.163,1.697-0.67,1.697-0.67c-1.555,0.255-2.545-0.094-3.004-0.322c-0.324-0.307-0.582-0.6-0.836-0.9
			c-0.42-0.497-0.771-0.934-1-1.228c-0.197-0.251-0.348-0.231-0.412,0.021C14.48,6.389,14.262,7.25,14.17,7.574
			c-0.141,0.481-1.16,0.945-1.812,1.218c-1.101,0.458-1.65,0-2.475,0.458c-0.826,0.457-0.549,1.076-1.559,1.559
			c-1.009,0.482-2.141,0.117-3.599,0.919c-0.739,0.404-1.1,0.825-1.284,1.442c-0.182,0.621-0.07,1.651,0.23,1.79
			c0.299,0.139,0.596,0.091,0.734,0.643c0.139,0.55,0.342,1.031,1.168,0.893c0.824-0.135,3.18-0.776,3.776-0.687
			c0.597,0.092,1.517,0.875,2.282,1.063c0.856,0.208,1.713,0.12,2.076,0.061c0.125-0.02,0.281-0.056,0.455-0.1
			c0.225-0.01,0.779,0.019,1.051,0.513c0.148,0.271,0.551,1.094,0.914,1.839c0.029,0.064,1.016,2.149,1.855,3.8
			c0.445,0.883-0.936,3.645,0.457,4.984c0,0-0.844-1.352-0.069-2.953c0.771-1.605,0.798-2.719-0.438-4.647
			c0,0-1.811-2.864-2.294-3.521c-0.146-0.199-0.321-0.306-0.501-0.362c0.212-0.096,0.434-0.203,0.656-0.333
			c0,0,1.629-0.985,2.201-3.119c0,0-1.561,2.919-4.681,3.119c-3.12,0.201-4.629-1.79-4.629-1.79s0.161,0.553,0.021,0.642
			c-0.136,0.095-2.207,0.412-2.584,0.507c-0.709,0.184-0.849-0.643-0.344-0.987c0,0-1.171-0.093-1.305-0.756
			c-0.139-0.664,0.581-1.09,1.305-1.284c1.975-0.528,2.236-0.375,3.371-1.009c0.572-0.321,0.479-1.102,1.42-1.469
			s1.281,0.07,2.385-0.436c1.098-0.503,1.756-0.906,2.131-1.469c0.092-0.137,0.252,0.186,0.389,0.528s0.988,1.429,1.902,2.179
			c1.146,0.939,2.023,1.524,3.092,1.602c0,0-0.387,0.623-1.351,0.464c0,0,0.917,1.077,1.925,1.354c0,0-0.436,0.021-0.824-0.048
			c0,0,0.342,1.539,2.016,2.879c1.674,1.344,3.85,2.009,3.85,2.009s-0.205,0.501-1.217,0.594c0,0,0.508,0.321,0.965,0.298
			c0,0-0.549,0.873,0.252,1.835c0.403,0.483,0.817,0.923,1.226,1.288v-6.11c-0.751-0.586-1.167-1.154-1.339-1.623
			c0,0,0.643,0.12,1.339,0.286V14.699z"/>
		<path fill="#7B6E66" d="M30.423,20.584v1.114h9.763c-0.082-0.629-0.623-1.111-1.273-1.114h-0.071H30.423z"/>
		<path fill="#7B6E66" d="M37.453,14.608c-0.08-0.626-0.621-1.112-1.273-1.112h-5.757v1.112H37.453z"/>
		<path fill="#AEA299" d="M44.637,26.451H29.211v-11.82v-1.048v-0.087c-0.623,0-1.133,0.511-1.133,1.135V27.91h0.145h0.988h15.426
			h1.23h0.226C46.093,27.106,45.44,26.451,44.637,26.451z"/>
	</g>
	<g>
		<path fill="#DBD9D6" d="M19.104,41.81c-0.098,0.256-0.234,0.383-0.404,0.383h-1.918v1.23h1.65c0.674,0,1.098-0.302,1.271-0.905
			l0.657-2.596h-0.696L19.104,41.81z"/>
		<path fill="#DBD9D6" d="M21.726,36.851h3.437v-1.229h-3.437v-1.126h-0.688v1.126h-2.08v-0.53c-1.201,0-2.177,0.976-2.177,2.18
			h2.177v-0.421h2.08v1.379h-4.257v1.267h5.194v2.696c0,0.82,0.46,1.23,1.377,1.23h1.044h1.228c0-0.679-0.549-1.23-1.228-1.23h-1.42
			c-0.236,0-0.354-0.102-0.354-0.304v-2.393h3.001v-1.267h-3.898V36.851z"/>
		<path fill="#DBD9D6" d="M44.979,35.282L44.979,35.282l-2.396-0.001v-1.023c-0.676,0-1.25,0.425-1.48,1.023h-3.62v6.716
			c0,0.211-0.094,0.312-0.278,0.312l-0.039,0.242v0.871h0.162c0.873,0,1.309-0.436,1.309-1.309v-5.722h7.302l0.154-0.002
			C46.091,35.778,45.592,35.282,44.979,35.282z"/>
		<path fill="#DBD9D6" d="M44.73,36.855h-1.616v6.613h0.421v-0.465h1.316c0.66-0.031,0.99-0.377,0.99-1.032v-1.23
			c0-0.333-0.176-0.604-0.529-0.806c0.354-0.209,0.529-0.546,0.529-1.004v-1.014l-0.003-0.004
			C45.813,37.327,45.328,36.855,44.73,36.855z M44.73,41.904c0,0.156-0.052,0.234-0.154,0.234h-1.041v-1.692h1.041
			c0.109,0,0.154,0.062,0.154,0.189V41.904z M44.73,39.246c0,0.124-0.07,0.187-0.217,0.187h-0.979v-1.534h1.195V39.246z"/>
		<path fill="#DBD9D6" d="M41.406,41.51v0.758c-0.014,0.108-0.088,0.167-0.233,0.167h-1.269c-0.154,0-0.228-0.067-0.228-0.195
			v-1.034h2.153c0.513,0,0.768-0.243,0.768-0.728v-3.386h-0.994v-0.426h-1.387v0.426h-1v5.568c0,0.539,0.268,0.809,0.807,0.809
			h1.467c0.764,0,1.146-0.346,1.151-1.031l0,0C42.642,42,42.086,41.51,41.406,41.51z M39.677,38.085h2.31v0.542h-2.31V38.085z
			 M39.677,39.633h2.31v0.38c0,0.124-0.08,0.189-0.236,0.189h-2.073V39.633z"/>
		<path fill="#DBD9D6" d="M35.661,34.755h-1.149l0.156,0.608c0,0.054-0.041,0.078-0.117,0.078h-1.771l0.695-0.963h-1.203
			l-0.69,1.084v0.806h3.579c0.467,0,0.698-0.153,0.698-0.454v-0.473c-0.015-0.063-0.023-0.107-0.03-0.127L35.661,34.755z"/>
		<path fill="#DBD9D6" d="M27.097,39.37c0,0.511,0.254,0.767,0.767,0.767h3.078v0.701h-4.16v0.928h4.16v0.21
			c0,0.308-0.063,0.463-0.188,0.463h-0.935h-0.141h-0.081h-0.92c0,0.552,0.445,1.003,1.001,1.003h0.733
			c0.253,0,0.412-0.041,0.553-0.198c0.171-0.185,0.252-0.413,0.252-0.689v-3.342h-1.499v-0.61h1.218v-0.924h-1.218v-0.583h1.218
			v-0.924h-1.218V35.6h1.499v-0.964h-4.12V39.37z M28.21,35.6h1.167v0.571H28.21V35.6z M28.21,37.095h1.167v0.583H28.21V37.095z
			 M28.21,38.602h1.167v0.61h-0.984c-0.123,0-0.183-0.052-0.183-0.157V38.602z"/>
		<path fill="#DBD9D6" d="M34.09,42.094l-0.105-0.118l1.757-2.183l-0.013-0.013h0.013c0-0.613-0.499-1.109-1.11-1.109v0.002h-1.282
			l0.197-0.466h-1.271l-0.295,0.778c-0.059,0.151-0.15,0.227-0.276,0.227h-0.123v1.003h0.626c0.328,0,0.559-0.168,0.688-0.502h1.418
			l-1.104,1.429l-0.701-0.739h-0.879l1.169,1.271l-0.462,0.598c-0.046,0.062-0.1,0.091-0.168,0.091h-0.587v1.04h1.05
			c0.15,0,0.27-0.061,0.352-0.187l0.584-0.717l0.608,0.67c0.144,0.155,0.309,0.233,0.493,0.233h1.11v-0.753h-0.98
			C34.565,42.648,34.275,42.279,34.09,42.094z"/>
		<path fill="#DBD9D6" d="M33.393,36.572h-1.055c0,0.415-0.338,0.754-0.757,0.754v1.053C32.584,38.379,33.393,37.573,33.393,36.572z
			"/>
		<path fill="#DBD9D6" d="M35.778,37.326c-0.415,0-0.751-0.339-0.751-0.754h-1.057c0,1.001,0.809,1.807,1.808,1.807V37.326z"/>
	</g>
	<g>
		<path fill="#AEA299" d="M37.369,29.771h0.555c0-0.304-0.25-0.554-0.555-0.554h-1.5H35.84h-0.525V32.4h0.275h0.279h1.5h0.555
			c0-0.31-0.25-0.559-0.555-0.559h-1.5v-0.757h1.5h0.555c0-0.308-0.25-0.556-0.555-0.556h-1.5v-0.759H37.369z"/>
		<path fill="#AEA299" d="M18.436,31.87L18.436,31.87h-0.986v-2.653h-0.668v2.653v0.53h0.668h0.986h0.438h0.09
			C18.963,32.106,18.729,31.87,18.436,31.87z"/>
		<path fill="#AEA299" d="M23.064,30.065h-1.262v0.48h1.027c0.391,0,0.56,0.08,0.56,0.376c0,0.02,0,0.036,0,0.059h-0.812
			c-0.652,0-0.931,0.204-0.931,0.744c0,0.43,0.257,0.676,0.725,0.676h1.655v-1.465C24.027,30.361,23.705,30.065,23.064,30.065z
			 M23.395,31.929h-0.771c-0.227,0-0.336-0.028-0.336-0.222c0-0.208,0.122-0.261,0.383-0.261h0.725V31.929z"/>
		<path fill="#AEA299" d="M26.045,30.065h-0.527c-0.422,0-0.705,0.079-0.926,0.357c-0.17,0.212-0.252,0.469-0.252,0.779
			c0,0.745,0.41,1.198,1.139,1.198h1.181v-3.184h-0.614V30.065z M26.045,31.896h-0.423c-0.456,0-0.636-0.161-0.636-0.649
			c0-0.505,0.206-0.68,0.688-0.68h0.371V31.896z"/>
		<rect x="27.275" y="29.202" fill="#AEA299" width="0.65" height="0.585"/>
		<rect x="27.194" y="30.065" fill="#AEA299" width="0.647" height="2.335"/>
		<path fill="#AEA299" d="M29.533,30.065h-1.156V32.4h0.615v-1.823h0.496c0.348,0,0.406,0.095,0.406,0.416V32.4h0.615v-1.483
			C30.51,30.299,30.227,30.065,29.533,30.065z"/>
		<path fill="#AEA299" d="M31.225,30.338c-0.219,0.208-0.347,0.531-0.347,0.898c0,0.374,0.128,0.695,0.347,0.903
			c0.262,0.253,0.523,0.261,0.879,0.261h0.501c0,0.01,0,0.023,0,0.038c0,0.212-0.132,0.331-0.372,0.331h-0.629
			c-0.262,0-0.479,0.213-0.479,0.475h0.006h0.473h0.739c0.613,0,0.88-0.303,0.88-0.93v-2.249h-1.119
			C31.716,30.065,31.445,30.122,31.225,30.338z M32.604,30.564v1.353h-0.321c-0.528,0-0.763-0.144-0.763-0.681
			c0-0.289,0.075-0.478,0.273-0.595c0.13-0.077,0.286-0.077,0.489-0.077H32.604z"/>
		<path fill="#AEA299" d="M39.992,30.065h-0.526c-0.419,0-0.705,0.079-0.926,0.357c-0.167,0.212-0.255,0.469-0.255,0.779
			c0,0.745,0.414,1.198,1.14,1.198h1.183v-3.184h-0.615V30.065z M39.992,31.896h-0.42c-0.458,0-0.639-0.161-0.639-0.649
			c0-0.505,0.209-0.68,0.688-0.68h0.37V31.896z"/>
		<path fill="#AEA299" d="M41.334,30.338c-0.217,0.208-0.345,0.531-0.345,0.898c0,0.374,0.128,0.695,0.345,0.903
			c0.263,0.253,0.524,0.261,0.881,0.261h0.499c0,0.01,0,0.023,0,0.038c0,0.212-0.128,0.331-0.366,0.331h-0.634
			c-0.263,0-0.471,0.213-0.471,0.475l0,0h0.471h0.735c0.619,0,0.883-0.303,0.883-0.93v-2.249h-1.117
			C41.828,30.065,41.558,30.122,41.334,30.338z M42.714,30.564v1.353h-0.321c-0.523,0-0.76-0.144-0.76-0.681
			c0-0.289,0.076-0.478,0.275-0.595c0.127-0.077,0.283-0.077,0.484-0.077H42.714z"/>
		<path fill="#AEA299" d="M20.041,32.4h1.26v-0.483h-1.025c-0.391,0-0.559-0.083-0.559-0.379c0-0.018,0-0.036,0-0.058h0.81
			c0.65,0,0.929-0.205,0.929-0.743c0-0.432-0.256-0.672-0.721-0.672h-1.655v1.46C19.079,32.104,19.4,32.4,20.041,32.4z
			 M19.709,30.532h0.771c0.229,0,0.34,0.025,0.34,0.223c0,0.21-0.12,0.262-0.383,0.262h-0.729V30.532z"/>
		<path fill="#AEA299" d="M44.679,32.4h1.261v-0.483h-1.026c-0.391,0-0.563-0.083-0.563-0.379c0-0.018,0-0.036,0-0.058h0.818
			c0.647,0,0.925-0.205,0.925-0.743c0-0.432-0.257-0.672-0.722-0.672h-1.655v1.46C43.716,32.104,44.041,32.4,44.679,32.4z
			 M44.348,30.532h0.771c0.226,0,0.338,0.025,0.338,0.223c0,0.21-0.121,0.262-0.383,0.262h-0.727V30.532z"/>
	</g>
</g>
</svg>
