<?xml version="1.0" encoding="utf-8"?>
<!-- Generator: Adobe Illustrator 16.0.0, SVG Export Plug-In . SVG Version: 6.00 Build 0)  -->
<!DOCTYPE svg PUBLIC "-//W3C//DTD SVG 1.1//EN" "http://www.w3.org/Graphics/SVG/1.1/DTD/svg11.dtd">
<svg version="1.1" id="Layer_1" xmlns="http://www.w3.org/2000/svg" xmlns:xlink="http://www.w3.org/1999/xlink" x="0px" y="0px"
	 width="60px" height="60px" viewBox="0 0 60 60" enable-background="new 0 0 60 60" xml:space="preserve">
<g>
	<g>
		<path fill="none" stroke="#534741" stroke-width="2" stroke-miterlimit="10" d="M16,24.389c0,0.617,0.217,1.144,0.652,1.58
			c0.436,0.436,0.963,0.653,1.58,0.653s1.145-0.218,1.58-0.653c0.436-0.437,0.653-0.963,0.653-1.58s-0.218-1.145-0.653-1.58
			s-0.963-0.654-1.58-0.654s-1.145,0.219-1.58,0.654S16,23.772,16,24.389z"/>
		<path fill="none" stroke="#534741" stroke-width="2" stroke-miterlimit="10" d="M41.085,24.879
			c-0.509-0.69-1.171-1.194-1.988-1.512c-0.817-0.318-1.616-0.477-2.397-0.477c-0.998,0-1.906,0.182-2.724,0.545
			s-1.521,0.862-2.11,1.498c-0.591,0.635-1.045,1.38-1.362,2.232c-0.318,0.854-0.477,1.78-0.477,2.779
			c0,1.053,0.154,2.015,0.463,2.886s0.749,1.621,1.321,2.248c0.572,0.625,1.257,1.111,2.057,1.457
			c0.799,0.344,1.697,0.518,2.696,0.518c1.035,0,1.952-0.205,2.751-0.613s1.443-0.949,1.934-1.621L44,36.754
			c-0.854,1.072-1.898,1.902-3.133,2.492c-1.235,0.59-2.679,0.887-4.331,0.887c-1.507,0-2.892-0.25-4.153-0.75
			c-1.263-0.5-2.348-1.199-3.256-2.098s-1.615-1.969-2.125-3.213c-0.508-1.244-0.762-2.619-0.762-4.126
			c0-1.544,0.268-2.938,0.804-4.182c0.535-1.243,1.271-2.301,2.206-3.173c0.935-0.872,2.038-1.544,3.31-2.016
			c1.271-0.472,2.651-0.708,4.14-0.708c0.617,0,1.262,0.059,1.934,0.176c0.672,0.119,1.316,0.301,1.935,0.545
			c0.617,0.246,1.198,0.551,1.743,0.913c0.545,0.363,1.008,0.8,1.389,1.308L41.085,24.879z"/>
	</g>
</g>
</svg>
