<?xml version="1.0" encoding="utf-8"?>
<!-- Generator: Adobe Illustrator 16.0.0, SVG Export Plug-In . SVG Version: 6.00 Build 0)  -->
<!DOCTYPE svg PUBLIC "-//W3C//DTD SVG 1.1//EN" "http://www.w3.org/Graphics/SVG/1.1/DTD/svg11.dtd">
<svg version="1.1" id="Layer_1" xmlns="http://www.w3.org/2000/svg" xmlns:xlink="http://www.w3.org/1999/xlink" x="0px" y="0px"
	 width="60px" height="60px" viewBox="0 0 60 60" enable-background="new 0 0 60 60" xml:space="preserve">
<path fill="none" stroke="#534741" stroke-width="2" stroke-miterlimit="10" d="M29.63,24.244c-0.382-1.483-2.365-1.099-2.678-0.786
	c-0.744-0.743-1.722-1.41-3.565-1.161c-1.841,0.248-3.397,1.735-2.988,3.866c-0.862,0-2.147-0.094-3.265,0.865
	c-0.961,0.8-1.054,2.201-1.054,2.201s-0.944-0.154-1.773,0.394c-0.831,0.548-0.786,1.525-0.786,1.525
	c-0.705,0-1.491,0.979-1.148,1.902c0.25,0.672,1.137,0.976,1.789,0.976c1.441,0,8.385,0,8.385,0s-0.322-1.707,0.925-2.953
	c1.541-1.542,3.03-1.238,3.03-1.238s-0.227-1.34,1.018-2.283c1.311-0.997,2.335-0.558,2.335-0.558s1.17-3.058,5.091-3.058
	c3.923,0,5.001,3.99,5.001,3.99s2.35-0.574,3.928,1.004c1.579,1.58,1.506,4.091,1.506,4.091s1.365,0.072,2.083,1.794
	c0.717,1.722-0.217,2.941-1.508,2.941s-18.17,0-18.17,0"/>
</svg>
