<?xml version="1.0" encoding="utf-8"?>
<!-- Generator: Adobe Illustrator 16.0.0, SVG Export Plug-In . SVG Version: 6.00 Build 0)  -->
<!DOCTYPE svg PUBLIC "-//W3C//DTD SVG 1.1//EN" "http://www.w3.org/Graphics/SVG/1.1/DTD/svg11.dtd">
<svg version="1.1" id="Layer_1" xmlns="http://www.w3.org/2000/svg" xmlns:xlink="http://www.w3.org/1999/xlink" x="0px" y="0px"
	 width="60px" height="60px" viewBox="0 0 60 60" enable-background="new 0 0 60 60" xml:space="preserve">
<g>
	<path fill="none" stroke="#534741" stroke-width="2" stroke-miterlimit="10" d="M12.5,38.162c1.479,0,9.197,0,9.197,0
		s-0.331-1.75,0.946-3.029c1.581-1.58,3.109-1.268,3.109-1.268s-0.233-1.374,1.042-2.343c1.345-1.021,2.396-0.57,2.396-0.57
		s1.198-3.135,5.22-3.135s5.128,4.091,5.128,4.091s2.409-0.589,4.027,1.03c1.619,1.618,1.545,4.194,1.545,4.194
		s1.398,0.073,2.134,1.839c0.736,1.766-0.221,3.017-1.545,3.017s-18.631,0-18.631,0"/>
	<line fill="none" stroke="#534741" stroke-width="2" stroke-miterlimit="10" x1="24.534" y1="22.302" x2="24.534" y2="18.012"/>
	<line fill="none" stroke="#534741" stroke-width="2" stroke-miterlimit="10" x1="30.012" y1="24.57" x2="33.045" y2="21.536"/>
	<line fill="none" stroke="#534741" stroke-width="2" stroke-miterlimit="10" x1="19.059" y1="24.57" x2="16.024" y2="21.537"/>
	<line fill="none" stroke="#534741" stroke-width="2" stroke-miterlimit="10" x1="16.789" y1="30.047" x2="12.5" y2="30.047"/>
	<path fill="none" stroke="#534741" stroke-width="2" stroke-miterlimit="10" d="M12.5,38.162c1.479,0,9.197,0,9.197,0
		s-0.331-1.75,0.946-3.029c1.581-1.58,3.109-1.268,3.109-1.268s-0.233-1.374,1.042-2.343c1.345-1.021,2.396-0.57,2.396-0.57
		s1.198-3.135,5.22-3.135s5.128,4.091,5.128,4.091s2.409-0.589,4.027,1.03c1.619,1.618,1.545,4.194,1.545,4.194
		s1.398,0.073,2.134,1.839c0.736,1.766-0.221,3.017-1.545,3.017s-18.631,0-18.631,0"/>
	<path fill="none" stroke="#534741" stroke-width="2" stroke-miterlimit="10" d="M22.381,35.435
		c0.079-0.103,0.166-0.204,0.263-0.302c1.581-1.58,3.109-1.268,3.109-1.268s-0.233-1.374,1.042-2.343
		c1.345-1.021,2.396-0.57,2.396-0.57s0.302-0.789,1.108-1.574c-0.331-2.891-2.783-5.137-5.765-5.137
		c-3.206,0-5.806,2.599-5.806,5.806C18.729,32.491,20.242,34.579,22.381,35.435z"/>
</g>
</svg>
