<?xml version="1.0" encoding="utf-8"?>
<!-- Generator: Adobe Illustrator 16.0.0, SVG Export Plug-In . SVG Version: 6.00 Build 0)  -->
<!DOCTYPE svg PUBLIC "-//W3C//DTD SVG 1.1//EN" "http://www.w3.org/Graphics/SVG/1.1/DTD/svg11.dtd">
<svg version="1.1" id="Layer_1" xmlns="http://www.w3.org/2000/svg" xmlns:xlink="http://www.w3.org/1999/xlink" x="0px" y="0px"
	 width="60px" height="60px" viewBox="0 0 60 60" enable-background="new 0 0 60 60" xml:space="preserve">
<g>
	<path fill="none" stroke="#534741" stroke-width="2" stroke-miterlimit="10" d="M29.635,20.068
		c-0.379-1.466-2.338-1.086-2.647-0.776c-0.733-0.734-1.701-1.394-3.521-1.148c-1.818,0.247-3.356,1.716-2.955,3.821
		c-0.852,0-2.12-0.092-3.226,0.856c-0.947,0.789-1.04,2.172-1.04,2.172s-0.933-0.149-1.752,0.391
		c-0.821,0.54-0.776,1.507-0.776,1.507c-0.698,0-1.473,0.966-1.136,1.88c0.246,0.663,1.124,0.964,1.768,0.964
		c1.425,0,8.286,0,8.286,0s-0.319-1.688,0.912-2.918c1.523-1.524,2.996-1.223,2.996-1.223s-0.225-1.324,1.005-2.258
		c1.296-0.984,2.308-0.55,2.308-0.55s1.155-3.021,5.03-3.021c3.876,0,4.94,3.942,4.94,3.942s2.323-0.567,3.882,0.993
		c1.561,1.56,1.489,4.041,1.489,4.041s1.347,0.07,2.056,1.772c0.71,1.702-0.212,2.908-1.488,2.908c-1.275,0-17.954,0-17.954,0"/>
	<line fill="none" stroke="#534741" stroke-width="2" stroke-miterlimit="10" x1="21.94" y1="35.582" x2="15.612" y2="41.909"/>
	<line fill="none" stroke="#534741" stroke-width="2" stroke-miterlimit="10" x1="28.315" y1="35.582" x2="21.988" y2="41.909"/>
	<line fill="none" stroke="#534741" stroke-width="2" stroke-miterlimit="10" x1="34.692" y1="35.582" x2="28.364" y2="41.909"/>
	<line fill="none" stroke="#534741" stroke-width="2" stroke-miterlimit="10" x1="41.068" y1="35.582" x2="34.74" y2="41.909"/>
</g>
</svg>
