<?xml version="1.0" encoding="utf-8"?>
<!-- Generator: Adobe Illustrator 16.0.0, SVG Export Plug-In . SVG Version: 6.00 Build 0)  -->
<!DOCTYPE svg PUBLIC "-//W3C//DTD SVG 1.1//EN" "http://www.w3.org/Graphics/SVG/1.1/DTD/svg11.dtd">
<svg version="1.1" id="Layer_1" xmlns="http://www.w3.org/2000/svg" xmlns:xlink="http://www.w3.org/1999/xlink" x="0px" y="0px"
	 width="60px" height="60px" viewBox="0 0 60 60" enable-background="new 0 0 60 60" xml:space="preserve">
<g>
	<path fill="none" stroke="#534741" stroke-width="2" stroke-miterlimit="10" d="M29.635,20.389
		c-0.378-1.466-2.338-1.085-2.646-0.776c-0.734-0.734-1.702-1.394-3.521-1.147c-1.82,0.246-3.357,1.715-2.955,3.819
		c-0.852,0-2.121-0.092-3.227,0.856c-0.948,0.79-1.04,2.172-1.04,2.172s-0.933-0.15-1.752,0.391
		c-0.821,0.541-0.776,1.506-0.776,1.506c-0.698,0-1.474,0.967-1.135,1.881c0.245,0.664,1.123,0.965,1.767,0.965
		c1.425,0,8.286,0,8.286,0s-0.319-1.688,0.912-2.92c1.523-1.523,2.996-1.223,2.996-1.223s-0.225-1.323,1.005-2.256
		c1.295-0.984,2.308-0.55,2.308-0.55s1.155-3.021,5.03-3.021c3.876,0,4.941,3.943,4.941,3.943s2.322-0.567,3.882,0.992
		c1.56,1.561,1.488,4.041,1.488,4.041s1.348,0.072,2.057,1.773s-0.213,2.906-1.489,2.906"/>
	<line fill="none" stroke="#534741" stroke-width="2" stroke-miterlimit="10" x1="36.398" y1="33.741" x2="29.015" y2="41.126"/>
	<line fill="none" stroke="#534741" stroke-width="2" stroke-miterlimit="10" x1="21.003" y1="33.741" x2="13.619" y2="41.126"/>
	<polyline fill="none" stroke="#534741" stroke-width="2" stroke-miterlimit="10" points="26.152,33.741 22.687,37.208 
		26.336,37.208 21.958,41.587 	"/>
	<polyline fill="none" stroke="#534741" stroke-width="2" stroke-miterlimit="10" points="42.512,33.741 39.045,37.208 
		42.695,37.208 38.317,41.587 	"/>
</g>
</svg>
