<?xml version="1.0" encoding="utf-8"?>
<!-- Generator: Adobe Illustrator 16.0.0, SVG Export Plug-In . SVG Version: 6.00 Build 0)  -->
<!DOCTYPE svg PUBLIC "-//W3C//DTD SVG 1.1//EN" "http://www.w3.org/Graphics/SVG/1.1/DTD/svg11.dtd">
<svg version="1.1" id="Layer_1" xmlns="http://www.w3.org/2000/svg" xmlns:xlink="http://www.w3.org/1999/xlink" x="0px" y="0px"
	 width="60px" height="60px" viewBox="0 0 60 60" enable-background="new 0 0 60 60" xml:space="preserve">
<g>
	<polyline fill="none" stroke="#534741" stroke-width="2" stroke-miterlimit="10" points="21.983,33.742 18.516,37.209 
		22.167,37.209 17.789,41.587 	"/>
	<path fill="none" stroke="#534741" stroke-width="2" stroke-miterlimit="10" d="M29.635,20.39
		c-0.379-1.465-2.338-1.085-2.646-0.776c-0.734-0.734-1.703-1.394-3.522-1.147s-3.356,1.715-2.954,3.819
		c-0.852,0-2.121-0.092-3.227,0.856c-0.948,0.79-1.04,2.173-1.04,2.173s-0.933-0.15-1.752,0.391
		c-0.821,0.54-0.776,1.506-0.776,1.506c-0.698,0-1.474,0.967-1.136,1.88c0.246,0.664,1.124,0.965,1.768,0.965
		c1.424,0,8.286,0,8.286,0s-0.319-1.688,0.912-2.919c1.522-1.523,2.996-1.222,2.996-1.222s-0.225-1.324,1.005-2.258
		c1.295-0.984,2.308-0.55,2.308-0.55s1.156-3.021,5.031-3.021c3.876,0,4.941,3.943,4.941,3.943s2.321-0.567,3.881,0.992
		c1.561,1.561,1.489,4.041,1.489,4.041s1.347,0.071,2.056,1.773c0.709,1.701-0.213,2.906-1.488,2.906c-1.276,0-13.307,0-13.307,0
		h-1.774l-3.467,3.467h3.65l-4.378,4.378"/>
	<polyline fill="none" stroke="#534741" stroke-width="2" stroke-miterlimit="10" points="39.388,33.742 35.921,37.209 
		39.571,37.209 35.192,41.587 	"/>
</g>
</svg>
