<?xml version="1.0" encoding="utf-8"?>
<!-- Generator: Adobe Illustrator 16.0.0, SVG Export Plug-In . SVG Version: 6.00 Build 0)  -->
<!DOCTYPE svg PUBLIC "-//W3C//DTD SVG 1.1//EN" "http://www.w3.org/Graphics/SVG/1.1/DTD/svg11.dtd">
<svg version="1.1" id="Layer_1" xmlns="http://www.w3.org/2000/svg" xmlns:xlink="http://www.w3.org/1999/xlink" x="0px" y="0px"
	 width="25px" height="20px" viewBox="0 0 25 20" enable-background="new 0 0 25 20" xml:space="preserve">
<g>
	<g>
		<path fill="#FFFFFF" d="M21.742,5.026c0.11-0.064,0.262-0.069,0.353-0.013l2.069,1.274c0.086,0.053,0.078,0.146-0.033,0.21
			c-0.102,0.06-0.26,0.062-0.346,0.009l-2.068-1.274C21.625,5.175,21.64,5.085,21.742,5.026z"/>
	</g>
	<g>
		<path fill="#FFFFFF" d="M15.328,1.625c0.467-0.27,1.16-0.295,1.549-0.056l0.977,0.602l3.269,2.013
			c0.092,0.057,0.071,0.15-0.033,0.209c-0.103,0.06-0.261,0.069-0.353,0.013l-3.268-2.013l-0.978-0.602
			c-0.217-0.134-0.595-0.121-0.85,0.027l-2.319,1.339l-0.467,0.271l1.25,0.771c0.218,0.134,0.603,0.116,0.862-0.027l1.542-0.89
			c0.475-0.274,1.161-0.295,1.55-0.056l2.285,1.407c0.092,0.057,0.077,0.146-0.026,0.206c-0.109,0.063-0.261,0.069-0.353,0.013
			l-2.285-1.408c-0.217-0.134-0.595-0.12-0.856,0.031l-1.542,0.89c-0.468,0.271-1.168,0.299-1.562,0.057l-1.251-0.771L8.636,5.864
			C8.168,6.134,7.475,6.159,7.086,5.92L5.344,4.847C4.955,4.607,5.02,4.195,5.488,3.925L8.86,1.978
			c0.468-0.27,1.166-0.291,1.549-0.055l1.743,1.073l0.389,0.24l0.467-0.271L15.328,1.625z M11.766,3.218l-1.742-1.073
			c-0.212-0.13-0.589-0.117-0.844,0.03L5.808,4.122C5.553,4.269,5.511,4.498,5.722,4.628l1.743,1.073
			C7.682,5.835,8.067,5.817,8.322,5.67l3.833-2.213L11.766,3.218"/>
	</g>
	<g>
		<path fill="#FFFFFF" d="M20.579,5.697c0.104-0.06,0.262-0.069,0.354-0.013l2.068,1.274c0.086,0.053,0.07,0.15-0.032,0.21
			c-0.104,0.06-0.268,0.065-0.353,0.013l-2.069-1.274C20.456,5.851,20.477,5.756,20.579,5.697z"/>
	</g>
	<g>
		<path fill="#FFFFFF" d="M19.423,6.365c0.104-0.06,0.262-0.069,0.354-0.013l2.068,1.274c0.086,0.053,0.071,0.15-0.033,0.21
			c-0.109,0.063-0.267,0.065-0.353,0.013L19.39,6.575C19.299,6.519,19.312,6.428,19.423,6.365z"/>
	</g>
	<g>
		<path fill="#FFFFFF" d="M17.93,7.227c0.289-0.167,0.718-0.182,0.952-0.038l1.525,0.939c0.234,0.145,0.2,0.403-0.088,0.57
			l-16.91,9.764c-0.289,0.166-0.711,0.178-0.951,0.03l-1.525-0.939c-0.24-0.147-0.195-0.399,0.087-0.562L17.93,7.227z M19.999,8.501
			c0.075-0.043,0.086-0.111,0.022-0.15l-1.525-0.939c-0.062-0.039-0.17-0.039-0.252,0.009L1.335,17.184
			c-0.076,0.044-0.086,0.111-0.023,0.15l1.525,0.939c0.063,0.039,0.177,0.035,0.252-0.009L19.999,8.501"/>
	</g>
</g>
</svg>
