<?xml version="1.0" encoding="utf-8"?>
<!-- Generator: Adobe Illustrator 16.0.0, SVG Export Plug-In . SVG Version: 6.00 Build 0)  -->
<!DOCTYPE svg PUBLIC "-//W3C//DTD SVG 1.1//EN" "http://www.w3.org/Graphics/SVG/1.1/DTD/svg11.dtd">
<svg version="1.1" id="Layer_1" xmlns="http://www.w3.org/2000/svg" xmlns:xlink="http://www.w3.org/1999/xlink" x="0px" y="0px"
	 width="40px" height="40px" viewBox="0 0 40 40" enable-background="new 0 0 40 40" xml:space="preserve">
<g>
	<path fill="#534741" d="M13.856,23.439l-1.857,1.127l4.543,2.492l-0.843,0.512l-4.543-2.49l-2.515,1.525
		c1.634,0.977,2.898,2.154,2.309,3.873c-0.336-0.051-0.979-0.074-1.332-0.053c0.535-1.492-0.473-2.496-1.802-3.318l-1.937,1.176
		L4.943,27.77l1.954-1.186l-2.123-1.166c-0.355,0.422-0.739,0.838-1.117,1.225c-0.275-0.1-0.767-0.215-1.092-0.26
		c1.007-1.049,1.937-2.293,2.203-3.184l1.402,0.07c-0.191,0.471-0.496,0.971-0.865,1.486l2.418,1.326l2.496-1.516l-3.975-2.18
		l0.844-0.512l3.975,2.18l1.855-1.127L13.856,23.439z"/>
	<path fill="#534741" d="M14.3,18.152c0.599,0.646,1.292,1.415,1.79,2.048c1.519,0.063,2.405,0.375,3.047,0.726
		c0.599,0.328,0.937,0.648,0.893,0.941c-0.027,0.15-0.123,0.281-0.287,0.416c-0.156,0.121-0.396,0.266-0.601,0.391
		c-0.251-0.129-0.699-0.281-1.057-0.344c0.226-0.111,0.395-0.215,0.527-0.295c0.104-0.076,0.183-0.146,0.179-0.23
		c0.047-0.139-0.162-0.316-0.478-0.488c-0.556-0.295-1.418-0.572-2.854-0.611c-0.455-0.526-1.081-1.167-1.579-1.667l-1.075,0.652
		l8.319,4.561l-0.721,0.438l-9.189-5.04l2.104-1.278l0.063-0.088L14.3,18.152z M19.346,15.55c0.502,0.654,0.679,1.337,0.622,2.003
		c0.917-0.154,1.834-0.42,2.693-0.771c0.029,0.201,0.185,0.532,0.318,0.729c-1.009,0.37-2.073,0.629-3.168,0.757
		c-0.219,0.681-0.673,1.345-1.248,1.974c-0.32-0.072-0.854-0.161-1.197-0.185c0.541-0.534,0.989-1.11,1.238-1.712
		c-0.529,0.018-1.063,0.002-1.573-0.053c0.014,0.295,0.019,0.596-0.033,0.906c-0.326-0.057-0.909-0.078-1.206-0.045
		c0.222-0.936-0.066-1.843-0.479-2.48l0.996-0.397c0.136,0.198,0.232,0.394,0.332,0.613l1.794-1.09l0.101-0.108L19.346,15.55z
		 M16.922,17.69c0.6,0.062,1.24,0.074,1.88,0.024c0.085-0.415,0.062-0.838-0.083-1.225l-1.82,1.105L16.922,17.69z M23.893,19.849
		l1.937-1.176l0.853,0.467l-1.937,1.176l1.524,0.836l-0.79,0.48l-1.524-0.836l-2.274,1.379c-0.389-0.406-1.042-0.971-1.604-1.443
		l-0.293,0.178l-0.854-0.466l2.08-1.263l-0.705-0.386l0.791-0.479l0.704,0.386l1.697-1.03l0.853,0.467l-1.697,1.03L23.893,19.849z
		 M23.103,20.33l-1.24-0.682l-1.03,0.626c0.328,0.263,0.673,0.564,0.974,0.843L23.103,20.33z"/>
	<path fill="#534741" d="M28.044,15.555c-0.354-0.102-0.975-0.247-1.572-0.369l5.068,2.779l-0.711,0.431l-4.553-2.497
		c0.701,0.632,1.314,1.256,1.616,1.729c-0.356-0.124-0.956-0.257-1.324-0.325c-0.382-0.692-1.466-1.76-2.546-2.587l-0.817,0.496
		l-0.904-0.495l0.862-0.523l-1.977-1.085l0.71-0.431l1.977,1.084l0.666-0.404l0.904,0.496l-0.666,0.404l0.579,0.317
		c0.551,0.065,2.027,0.3,2.386,0.374L28.044,15.555z M29.354,13.739c-0.133-0.053-0.289-0.116-0.461-0.182
		c-0.993,0.821-1.135,0.98-1.175,1.102c-0.183-0.059-0.64-0.207-0.909-0.263c0.111-0.104,0.084-0.293-0.02-0.534
		c-0.037-0.123-0.168-0.421-0.365-0.774c-0.491,0.407-0.59,0.527-0.625,0.622c-0.192-0.065-0.648-0.202-0.89-0.263
		c0.077-0.081,0.065-0.221-0.049-0.407c-0.074-0.173-0.499-0.827-1.082-1.372l0.823-0.257c0.412,0.503,0.782,1.044,1.004,1.505
		l0.488-0.369c-0.114-0.186-0.248-0.371-0.391-0.553l0.857-0.217c0.429,0.676,0.787,1.406,0.984,2.027l0.605-0.489
		c-0.254-0.077-0.516-0.149-0.747-0.214l0.339-0.39c0.662,0.157,1.49,0.407,1.951,0.577L29.354,13.739z M34.288,12.626
		c0.363,0.496,0.543,1.006,0.6,1.52c0.568,0.055,1.029,0.02,1.354-0.141c0.189-0.092-0.082-0.363-0.758-0.816
		c0.303,0.022,0.809-0.018,1.025-0.053c1.045,0.788,1.092,1.174,0.697,1.388c-0.604,0.306-1.375,0.386-2.328,0.272
		c-0.066,0.478-0.238,0.958-0.537,1.42c-0.277-0.039-0.756-0.076-1.066-0.082c0.342-0.5,0.537-1.019,0.561-1.519
		c-0.691-0.165-1.461-0.401-2.291-0.712l-1.35,0.819c0.105,0.058,0.221,0.121,0.316,0.185c0.789-0.041,1.809-0.076,2.383-0.05
		l0.082,0.631c-0.418-0.024-1.057-0.025-1.684-0.011c0.65,0.542,1.107,1.224,1.031,2.023c-0.275-0.027-0.873-0.017-1.131,0.018
		c0.148-1.11-0.814-1.875-1.699-2.37l-0.623,0.378l-0.768-0.421l2.551-1.548c-1.688-0.689-3.611-1.611-5.674-2.68l0.693-0.421
		c2.096,1.098,4.029,2.025,5.682,2.675l1.066-0.647c-0.396,0.009-0.846,0.039-1.207,0.077l-0.025-0.435
		c-0.332,0.311-0.406,0.403-0.441,0.486c-0.184-0.06-0.66-0.207-0.92-0.268c0.1-0.109,0.064-0.283-0.039-0.524
		c-0.037-0.123-0.176-0.415-0.371-0.758c-0.484,0.392-0.582,0.512-0.607,0.601c-0.193-0.065-0.648-0.202-0.9-0.257
		c0.077-0.082,0.038-0.217-0.045-0.385c-0.082-0.157-0.49-0.761-1.023-1.238l0.812-0.263c0.386,0.447,0.729,0.943,0.943,1.359
		l0.461-0.353c-0.125-0.192-0.248-0.373-0.408-0.554l0.875-0.228c0.455,0.671,0.832,1.391,1.039,2.006l0.613-0.494
		c-0.24-0.061-0.502-0.132-0.725-0.192l0.322-0.378c0.662,0.158,1.518,0.391,1.996,0.562l-0.305,0.429
		c-0.152-0.053-0.346-0.118-0.549-0.188c-0.275,0.239-0.49,0.418-0.652,0.566c0.486-0.053,1.145-0.112,1.533-0.104l0.031,0.284
		l0.719-0.437l0.768,0.42l-2.061,1.252c0.551,0.188,1.068,0.36,1.529,0.469c-0.082-0.363-0.242-0.729-0.494-1.061L34.288,12.626z"/>
</g>
</svg>
