<?xml version="1.0" encoding="utf-8"?>
<!-- Generator: Adobe Illustrator 16.0.0, SVG Export Plug-In . SVG Version: 6.00 Build 0)  -->
<!DOCTYPE svg PUBLIC "-//W3C//DTD SVG 1.1//EN" "http://www.w3.org/Graphics/SVG/1.1/DTD/svg11.dtd">
<svg version="1.1" id="Layer_1" xmlns="http://www.w3.org/2000/svg" xmlns:xlink="http://www.w3.org/1999/xlink" x="0px" y="0px"
	 width="40px" height="40px" viewBox="0 0 40 40" enable-background="new 0 0 40 40" xml:space="preserve">
<g>
	<path fill="#534741" d="M13.851,23.316l-1.857,1.127l4.543,2.491l-0.843,0.512l-4.543-2.491l-2.515,1.526
		c1.634,0.978,2.898,2.153,2.309,3.872c-0.336-0.05-0.979-0.074-1.332-0.053c0.535-1.492-0.473-2.496-1.802-3.317l-1.937,1.175
		l-0.937-0.513l1.954-1.187l-2.123-1.164c-0.355,0.421-0.739,0.837-1.117,1.225c-0.276-0.101-0.767-0.215-1.092-0.26
		c1.006-1.049,1.937-2.295,2.202-3.186l1.403,0.072c-0.191,0.469-0.496,0.97-0.865,1.485l2.418,1.325l2.496-1.515l-3.975-2.18
		l0.844-0.513l3.975,2.18l1.855-1.127L13.851,23.316z"/>
	<path fill="#534741" d="M14.215,18.076c0.59,0.651,1.28,1.41,1.79,2.049c1.508,0.056,2.395,0.368,3.036,0.721
		c0.609,0.334,0.947,0.652,0.903,0.945c-0.027,0.15-0.123,0.281-0.287,0.418c-0.156,0.119-0.396,0.265-0.609,0.395
		c-0.251-0.128-0.69-0.286-1.057-0.344c0.226-0.112,0.395-0.215,0.536-0.301c0.104-0.076,0.173-0.141,0.179-0.23
		c0.037-0.144-0.173-0.32-0.496-0.487c-0.548-0.301-1.398-0.572-2.865-0.606c-0.426-0.531-1.052-1.172-1.559-1.666L12.8,19.567
		l8.317,4.562l-0.719,0.437l-9.189-5.039l2.024-1.229l0.063-0.089L14.215,18.076z M19.172,15.528c0.521,0.655,0.728,1.333,0.708,2
		c0.963-0.159,1.938-0.436,2.841-0.813c0.021,0.207,0.175,0.537,0.311,0.735c-1.037,0.386-2.141,0.643-3.252,0.772
		c-0.193,0.725-0.643,1.423-1.243,2.078c-0.3-0.072-0.846-0.154-1.195-0.173c0.584-0.573,1.014-1.199,1.241-1.823
		c-0.56,0.012-1.104-0.011-1.663-0.06c0.022,0.278,0.027,0.579-0.034,0.884c-0.325-0.045-0.899-0.073-1.196-0.04
		c0.213-0.931-0.064-1.831-0.477-2.468l0.996-0.398c0.135,0.197,0.231,0.395,0.331,0.612l1.731-1.052l0.101-0.109L19.172,15.528z
		 M16.82,17.625c0.601,0.073,1.24,0.085,1.911,0.043c0.048-0.405,0.009-0.807-0.153-1.183l-1.776,1.079L16.82,17.625z
		 M23.801,19.791l1.919-1.166l0.851,0.467l-1.919,1.166l1.515,0.83l-0.799,0.485l-1.515-0.831l-1.919,1.165l-0.01-0.006
		l-0.338,0.205c-0.343-0.362-0.882-0.873-1.358-1.278l0.833-0.395c0.222,0.193,0.456,0.403,0.688,0.603l1.253-0.761L21.75,19.59
		l-1.945,1.181l-0.841-0.461l1.945-1.181l-0.726-0.398l0.798-0.485l0.727,0.397l1.661-1.008l0.841,0.461l-1.661,1.008L23.801,19.791
		z"/>
	<path fill="#534741" d="M29.408,14.951c-0.555-0.1-1.533-0.246-2.373-0.356l5.174,2.837l-0.826,0.501l-4.596-2.52
		c0.711,0.748,1.275,1.51,1.508,2.109c-0.381-0.096-0.953-0.174-1.316-0.22c-0.34-0.863-1.331-2.084-2.405-3.012l-1.315,0.798
		l-0.926-0.508l1.395-0.847l-1.998-1.095l0.826-0.502l1.998,1.096l1.128-0.685l0.926,0.508l-1.128,0.685l0.315,0.173
		c0.713,0.041,2.661,0.195,3.122,0.243L29.408,14.951z M36.172,13.836c0.062-0.038,0.094-0.082,0.086-0.127
		c-0.018-0.062-0.094-0.124-0.316-0.256c-0.225-0.145-0.742-0.438-1.404-0.801c0.328-0.016,0.725-0.075,1.031-0.152
		c0.58,0.316,1.291,0.748,1.52,0.936c0.271,0.188,0.361,0.341,0.352,0.48c-0.018,0.144-0.141,0.28-0.338,0.399l-0.453,0.274
		c-0.168,0.103-0.463,0.197-0.771,0.203c-0.322-0.012-0.605-0.096-1.5-0.586L27.9,10.655l-1.404,0.852l2.43,1.332
		c1.756,0.964,4.002,2.431,4.256,4.027c-0.322-0.023-0.996-0.003-1.318,0.046c-0.229-1.489-2.184-2.695-3.771-3.566l-3.356-1.84
		l3.065-1.859l7.424,4.07c0.326,0.179,0.504,0.266,0.572,0.272c0.078,0.002,0.135-0.008,0.197-0.046L36.172,13.836z"/>
</g>
</svg>
