<?xml version="1.0" encoding="utf-8"?>
<!-- Generator: Adobe Illustrator 16.0.0, SVG Export Plug-In . SVG Version: 6.00 Build 0)  -->
<!DOCTYPE svg PUBLIC "-//W3C//DTD SVG 1.1//EN" "http://www.w3.org/Graphics/SVG/1.1/DTD/svg11.dtd">
<svg version="1.1" id="Layer_1" xmlns="http://www.w3.org/2000/svg" xmlns:xlink="http://www.w3.org/1999/xlink" x="0px" y="0px"
	 width="20px" height="16px" viewBox="0 0 20 16" enable-background="new 0 0 20 16" xml:space="preserve">
<g>
	<g>
		<polygon fill="#FFFFFF" points="6.223,4.164 8.022,5.23 7.973,4.247 8.195,4.227 8.252,5.471 6.139,5.428 6.183,5.294 
			7.852,5.329 6.053,4.263 		"/>
	</g>
	<g>
		<path fill="#FFFFFF" d="M11.591,6.615c0.218-0.039,0.435-0.015,0.579,0.071c0.023,0.014,0.687,0.535,1.241,0.976
			c0.165,0.129,0.202,0.312,0.097,0.49c-0.039,0.065-0.023,0.13,0.041,0.168l1.717,1.018c0.117,0.069,0.106,0.191-0.03,0.271
			c-0.136,0.08-0.343,0.085-0.459,0.016l-1.718-1.018c-0.064-0.038-0.169-0.051-0.272-0.025l-0.033,0.005
			c-0.295,0.049-0.587,0.029-0.8-0.065c-0.745-0.33-1.639-0.723-1.662-0.736c-0.146-0.086-0.184-0.213-0.111-0.338l0.293-0.452
			c-0.188,0.041-0.373,0.02-0.489-0.049L9.822,6.85c-0.18-0.107-0.154-0.292,0.056-0.416c0.211-0.124,0.526-0.137,0.706-0.03
			L10.746,6.5c0.117,0.069,0.152,0.178,0.095,0.28L11.591,6.615z M13.224,7.751c-0.476-0.378-1.188-0.945-1.229-0.969
			c-0.087-0.052-0.223-0.068-0.358-0.043L10.731,6.94l-0.348,0.531c-0.042,0.079-0.015,0.159,0.078,0.214
			c0.035,0.021,1,0.448,1.638,0.73c0.172,0.07,0.408,0.089,0.64,0.042c0.181-0.037,0.373-0.02,0.489,0.049l1.718,1.018l0.145-0.002
			l0.012-0.09l-1.718-1.018c-0.122-0.073-0.15-0.186-0.079-0.296C13.386,7.992,13.354,7.853,13.224,7.751 M10.155,6.846
			c0.064,0.038,0.168,0.052,0.266,0.03l0.154-0.029l0.058-0.095c0.032-0.053,0.009-0.115-0.055-0.152l-0.163-0.097
			c-0.099-0.058-0.275-0.051-0.391,0.017C9.908,6.587,9.894,6.691,9.992,6.75L10.155,6.846"/>
	</g>
	<g>
		<polygon fill="#FFFFFF" points="3.458,5.643 5.572,5.685 5.535,5.815 3.866,5.78 5.666,6.846 5.496,6.946 3.696,5.879 
			3.745,6.862 3.522,6.883 		"/>
	</g>
	<g>
		<path fill="#FFFFFF" d="M9.031,8.111c0.218-0.039,0.435-0.015,0.58,0.071c0.023,0.014,0.686,0.535,1.241,0.976
			c0.164,0.129,0.203,0.312,0.097,0.49c-0.039,0.064-0.017,0.126,0.048,0.164l1.717,1.018c0.117,0.069,0.1,0.195-0.037,0.274
			c-0.136,0.08-0.343,0.085-0.459,0.017l-1.718-1.019c-0.064-0.038-0.169-0.052-0.273-0.024l-0.032,0.004
			c-0.289,0.054-0.587,0.029-0.8-0.065C8.648,9.688,7.755,9.294,7.732,9.28C7.587,9.194,7.547,9.067,7.621,8.942l0.293-0.451
			c-0.188,0.041-0.373,0.02-0.489-0.05L7.262,8.345C7.083,8.239,7.114,8.049,7.318,7.93C7.53,7.807,7.845,7.793,8.024,7.9
			l0.163,0.096c0.116,0.069,0.152,0.178,0.094,0.28L9.031,8.111z M10.672,9.243C10.188,8.87,9.475,8.302,9.435,8.278
			C9.348,8.227,9.212,8.21,9.077,8.234L8.172,8.436L7.824,8.967C7.782,9.046,7.809,9.126,7.902,9.182
			C7.943,9.197,8.901,9.629,9.54,9.911c0.172,0.07,0.408,0.09,0.64,0.043c0.206-0.038,0.378-0.017,0.489,0.049l1.718,1.019
			l0.145-0.003l0.012-0.089l-1.718-1.018c-0.122-0.072-0.15-0.186-0.079-0.296C10.826,9.487,10.795,9.349,10.672,9.243 M7.595,8.342
			C7.659,8.38,7.764,8.394,7.861,8.372l0.154-0.029l0.057-0.095c0.032-0.053,0.009-0.115-0.055-0.153L7.854,7.999
			C7.756,7.94,7.58,7.948,7.464,8.016c-0.116,0.067-0.13,0.171-0.031,0.23L7.595,8.342"/>
	</g>
	<g>
		<path fill="#FFFFFF" d="M4.376,8.542l6.474-3.784l7.054,4.179l-6.475,3.784L4.376,8.542z M17.595,8.955l-6.769-4.011L4.692,8.529
			l6.769,4.011L17.595,8.955"/>
	</g>
</g>
</svg>
