<?xml version="1.0" encoding="utf-8"?>
<!-- Generator: Adobe Illustrator 16.0.0, SVG Export Plug-In . SVG Version: 6.00 Build 0)  -->
<!DOCTYPE svg PUBLIC "-//W3C//DTD SVG 1.1//EN" "http://www.w3.org/Graphics/SVG/1.1/DTD/svg11.dtd">
<svg version="1.1" id="Layer_1" xmlns="http://www.w3.org/2000/svg" xmlns:xlink="http://www.w3.org/1999/xlink" x="0px" y="0px"
	 width="40px" height="40px" viewBox="0 0 40 40" enable-background="new 0 0 40 40" xml:space="preserve">
<g>
	<path fill="#534741" d="M8.842,23.407l1.014-0.616l5.68,3.115l2.423-1.471l1.067,0.585l-3.437,2.086L8.842,23.407z"/>
	<path fill="#534741" d="M13.759,20.422l1.014-0.615l6.747,3.699l-1.014,0.616L13.759,20.422z"/>
	<path fill="#534741" d="M16.832,18.556l3.678-2.232l1.047,0.575l-2.662,1.616l1.848,1.014l2.51-1.524l1.012,0.555l-2.51,1.523
		l2.84,1.558l-1.014,0.616L16.832,18.556z"/>
	<path fill="#534741" d="M24.445,15.144l-1.746,1.061l-1.047-0.575l4.506-2.735l1.047,0.575l-1.746,1.06l5.699,3.125l-1.014,0.615
		L24.445,15.144z"/>
</g>
</svg>
