<?xml version="1.0" encoding="utf-8"?>
<!-- Generator: Adobe Illustrator 16.0.0, SVG Export Plug-In . SVG Version: 6.00 Build 0)  -->
<!DOCTYPE svg PUBLIC "-//W3C//DTD SVG 1.1//EN" "http://www.w3.org/Graphics/SVG/1.1/DTD/svg11.dtd">
<svg version="1.1" id="Layer_1" xmlns="http://www.w3.org/2000/svg" xmlns:xlink="http://www.w3.org/1999/xlink" x="0px" y="0px"
	 width="90px" height="50px" viewBox="0 0 90 50" enable-background="new 0 0 90 50" xml:space="preserve">
<g>
	<path fill="#FFFFFF" d="M24.892,31.959c0.516,0.689,1.092,1.512,1.5,2.177c1.604,0.093,2.502,0.436,3.133,0.816
		c0.612,0.379,0.893,0.711,0.816,1.023c-0.034,0.148-0.154,0.295-0.344,0.433c-0.199,0.13-0.455,0.279-0.731,0.405
		c-0.244-0.141-0.704-0.33-1.067-0.418c0.259-0.104,0.479-0.222,0.625-0.312c0.127-0.068,0.216-0.151,0.246-0.238
		c0.053-0.158-0.127-0.332-0.443-0.528c-0.52-0.321-1.395-0.618-2.916-0.672c-0.372-0.567-0.926-1.26-1.381-1.806l-1.189,0.641
		l8.067,4.989l-0.787,0.423l-8.914-5.513l2.325-1.25l0.086-0.095L24.892,31.959z M29.24,29.433l8.588,5.312l-0.86,0.462l-0.662-0.41
		l-2.453,1.319l0.744,0.461l-0.823,0.442l-8.67-5.361L29.24,29.433z M26.813,31.763l2.531,1.564l2.453-1.318l-2.531-1.564
		L26.813,31.763z M35.419,34.248l-2.744-1.697l-2.453,1.319l2.744,1.697L35.419,34.248z"/>
	<path fill="#FFFFFF" d="M37.487,25.517c1.728,0.074,4.053,0.274,5.366,0.536l-0.123,0.749c-0.392-0.083-0.861-0.162-1.366-0.231
		c-4.74,2.89-5.304,3.217-5.553,3.539c-0.23-0.101-0.846-0.312-1.203-0.427c0.179-0.144,0.193-0.398,0.168-0.763
		c-0.016-0.38-0.234-1.712-0.801-2.835l1.258-0.205c0.372,0.991,0.583,2.021,0.629,2.917l4.061-2.408
		c-0.881-0.091-1.793-0.167-2.594-0.208L37.487,25.517z M36.998,30.367l5.931-3.188l4.325,2.676l-0.905,0.486l-0.521-0.322
		l-4.164,2.239l0.541,0.335l-0.86,0.462L36.998,30.367z M38.767,30.466l1.979,1.225l4.164-2.239l-1.979-1.224L38.767,30.466z"/>
	<path fill="#FFFFFF" d="M46.079,24.058c1.592,0.984,3.859,2.524,4.66,3.898c-0.329-0.024-0.959,0.009-1.254,0.049
		c-0.763-1.275-2.76-2.584-4.238-3.5l-2.773-1.715l3.706-1.993c-0.396-0.106-0.847-0.206-1.227-0.272l0.509-0.615
		c0.565,0.085,1.194,0.23,1.688,0.366l2.966-1.595l0.877,0.543l-6.81,3.661L46.079,24.058z M46.91,22.138
		c0.364,0.299,0.67,0.584,0.937,0.875c0.801,0.03,1.758,0.094,2.303,0.166l0.139,0.656c-0.478-0.073-1.234-0.149-1.96-0.196
		c0.292,0.445,0.429,0.879,0.419,1.297c-0.27-0.02-0.876-0.014-1.161,0.011c0.101-0.773-0.497-1.608-1.546-2.447L46.91,22.138z
		 M54.405,24.795l3.038-1.634l0.816,0.504l-6.864,3.69l-0.816-0.504l3.011-1.619l-1.295-0.801l-2.425,1.304l-0.827-0.512
		l2.425-1.304l-3.916-2.422l0.814-0.438l2.785,1.723c0.057-0.728-0.467-1.506-1.414-2.271l0.882-0.344
		c0.375,0.316,0.683,0.623,0.933,0.926c0.963,0.025,2.07,0.054,2.73,0.112l0.128,0.65c-0.595-0.07-1.55-0.122-2.437-0.152
		c0.23,0.418,0.346,0.827,0.314,1.21c-0.223-0.021-0.646-0.029-0.963-0.023l0.957,0.593l2.499-1.344l0.827,0.511l-2.498,1.344
		L54.405,24.795z"/>
	<path fill="#FFFFFF" d="M54.163,15.702c0.476,0.569,0.879,1.179,1.223,1.783l6.916,4.277l-0.859,0.463l-5.427-3.356
		c0.14,0.36,0.221,0.707,0.259,1.028c-0.306-0.095-1.062-0.277-1.435-0.338c-0.079-1.054-0.753-2.413-1.758-3.595L54.163,15.702z
		 M61.566,14.482l-4.988,2.682l-0.919-0.568l4.988-2.682L61.566,14.482z M57.806,15.384c-0.494-0.23-1.35-0.549-2.034-0.771
		l0.582-0.571c0.674,0.216,1.498,0.504,2.028,0.726L57.806,15.384z M62.678,19.604c-1.134-0.616-3.196-1.606-4.841-2.327
		l0.566-0.528c1.661,0.699,3.719,1.645,4.841,2.231L62.678,19.604z M67.239,17.6l0.908,0.562l-5.693,3.061l-0.908-0.562l3.176-1.707
		c-1.016-1.01-2.738-2.467-4.082-3.478l1.051-0.377c1.293,1.086,2.842,2.446,3.818,3.432L67.239,17.6z"/>
</g>
</svg>
