<?xml version="1.0" encoding="utf-8"?>
<!-- Generator: Adobe Illustrator 16.0.0, SVG Export Plug-In . SVG Version: 6.00 Build 0)  -->
<!DOCTYPE svg PUBLIC "-//W3C//DTD SVG 1.1//EN" "http://www.w3.org/Graphics/SVG/1.1/DTD/svg11.dtd">
<svg version="1.1" id="Layer_1" xmlns="http://www.w3.org/2000/svg" xmlns:xlink="http://www.w3.org/1999/xlink" x="0px" y="0px"
	 width="90px" height="50px" viewBox="0 0 90 50" enable-background="new 0 0 90 50" xml:space="preserve">
<g transform = "rotate(-1.5 100 100)">
	<path fill="#FFFFFF" d="M8.556,42.562l-1.8,0.968L5.74,42.9l4.643-2.496l1.017,0.629L9.601,42l5.528,3.419l-1.045,0.562
		L8.556,42.562z"/>
	<path fill="#FFFFFF" d="M11.892,39.593l3.889-2.091l1.017,0.629l-2.844,1.529l1.663,1.028l2.694-1.448l0.98,0.605l-2.694,1.449
		l1.849,1.144l2.993-1.609l1.036,0.641l-4.038,2.171L11.892,39.593z"/>
	<path fill="#FFFFFF" d="M17.778,36.428l2.04-1.096c0.275-0.149,0.575-0.274,0.9-0.373c0.324-0.1,0.662-0.158,1.011-0.176
		c0.351-0.017,0.706,0.017,1.068,0.1c0.362,0.084,0.716,0.232,1.06,0.445c0.477,0.294,0.742,0.598,0.801,0.912
		c0.058,0.313-0.068,0.614-0.378,0.902l4.471,0.952l-1.261,0.678l-4.133-0.983l-0.763,0.41l2.773,1.715l-1.045,0.562L17.778,36.428z
		 M22.496,37.15c0.148-0.08,0.287-0.168,0.411-0.264s0.212-0.195,0.263-0.302c0.051-0.105,0.053-0.219,0.003-0.338
		c-0.049-0.12-0.172-0.241-0.368-0.363c-0.179-0.11-0.361-0.181-0.547-0.213c-0.188-0.032-0.367-0.039-0.547-0.021
		c-0.179,0.017-0.35,0.057-0.516,0.116c-0.166,0.061-0.314,0.127-0.447,0.198l-0.945,0.508l1.839,1.138L22.496,37.15z"/>
	<path fill="#FFFFFF" d="M23.822,33.179l2.039-1.097c0.277-0.148,0.576-0.273,0.901-0.373c0.324-0.1,0.661-0.158,1.011-0.175
		s0.707,0.017,1.068,0.1s0.715,0.231,1.061,0.444c0.475,0.295,0.741,0.598,0.799,0.912c0.059,0.314-0.066,0.615-0.377,0.902
		l4.471,0.953l-1.26,0.678l-4.133-0.984l-0.764,0.41l2.773,1.715l-1.045,0.562L23.822,33.179z M28.539,33.9
		c0.15-0.08,0.289-0.168,0.412-0.263c0.125-0.096,0.213-0.196,0.264-0.302c0.051-0.106,0.052-0.219,0.002-0.339
		c-0.049-0.12-0.172-0.24-0.368-0.362c-0.179-0.11-0.361-0.182-0.548-0.214c-0.186-0.032-0.367-0.039-0.545-0.021
		c-0.18,0.018-0.352,0.057-0.517,0.117c-0.167,0.061-0.315,0.126-0.447,0.197l-0.945,0.509l1.839,1.137L28.539,33.9z"/>
	<path fill="#FFFFFF" d="M31.707,28.939l0.904-0.486l9.073,2.688l-1.194,0.642l-2.045-0.632L35.9,32.52l0.967,1.212l-1.168,0.628
		L31.707,28.939z M37.082,30.73l-3.566-1.162l1.743,2.143L37.082,30.73z"/>
	<path fill="#FFFFFF" d="M42.171,25.086c-0.39-0.062-0.762-0.06-1.118,0.008s-0.654,0.165-0.892,0.293
		c-0.304,0.163-0.519,0.35-0.645,0.56c-0.124,0.211-0.17,0.43-0.135,0.661c0.038,0.229,0.151,0.46,0.345,0.691
		s0.458,0.451,0.798,0.662c0.357,0.221,0.73,0.396,1.12,0.529c0.391,0.133,0.779,0.218,1.166,0.256s0.76,0.027,1.119-0.031
		c0.361-0.058,0.693-0.169,0.998-0.332c0.314-0.17,0.523-0.362,0.629-0.579c0.104-0.216,0.117-0.436,0.038-0.656l1.493-0.045
		c0.105,0.365,0.069,0.711-0.105,1.036c-0.176,0.326-0.516,0.624-1.02,0.895c-0.459,0.246-0.965,0.421-1.518,0.522
		c-0.555,0.102-1.121,0.133-1.703,0.093c-0.581-0.04-1.16-0.149-1.737-0.327s-1.121-0.425-1.633-0.741
		c-0.524-0.324-0.915-0.66-1.175-1.01c-0.258-0.348-0.395-0.691-0.404-1.027c-0.012-0.336,0.096-0.657,0.323-0.964
		c0.226-0.308,0.565-0.583,1.019-0.826c0.188-0.102,0.404-0.194,0.649-0.279c0.245-0.086,0.503-0.153,0.773-0.202
		c0.271-0.05,0.552-0.081,0.841-0.094s0.578,0.003,0.865,0.047L42.171,25.086z"/>
	<path fill="#FFFFFF" d="M43,22.868l3.889-2.091l1.017,0.628l-2.845,1.529l1.664,1.028l2.694-1.448l0.98,0.606l-2.694,1.449
		l1.848,1.143l2.994-1.608l1.036,0.64l-4.038,2.171L43,22.868z"/>
	<path fill="#FFFFFF" d="M56.149,17.378c-0.271-0.039-0.561-0.037-0.87,0.004c-0.311,0.041-0.567,0.117-0.771,0.228
		c-0.123,0.065-0.228,0.142-0.314,0.228c-0.088,0.086-0.146,0.178-0.174,0.275c-0.029,0.098-0.019,0.198,0.031,0.303
		c0.051,0.105,0.157,0.207,0.317,0.307c0.147,0.091,0.301,0.154,0.462,0.189c0.16,0.035,0.326,0.05,0.496,0.043
		c0.17-0.006,0.352-0.029,0.545-0.069c0.194-0.04,0.402-0.087,0.623-0.143c0.256-0.059,0.527-0.116,0.816-0.171
		c0.287-0.055,0.587-0.084,0.897-0.088c0.312-0.002,0.627,0.034,0.95,0.109c0.324,0.075,0.646,0.212,0.967,0.41
		c0.352,0.218,0.6,0.438,0.744,0.663c0.146,0.224,0.209,0.441,0.188,0.652s-0.118,0.413-0.292,0.606
		c-0.174,0.192-0.404,0.366-0.691,0.521c-0.381,0.205-0.832,0.357-1.354,0.456s-1.054,0.115-1.594,0.05l-0.03-0.882
		c0.365,0.061,0.733,0.066,1.104,0.017c0.369-0.05,0.67-0.137,0.902-0.261c0.122-0.066,0.229-0.143,0.322-0.232
		c0.094-0.089,0.151-0.186,0.174-0.291c0.021-0.104,0.004-0.211-0.053-0.319s-0.174-0.218-0.352-0.328
		c-0.173-0.107-0.354-0.177-0.539-0.208c-0.186-0.032-0.381-0.041-0.586-0.027c-0.204,0.014-0.42,0.047-0.648,0.098
		c-0.227,0.051-0.466,0.104-0.715,0.16c-0.239,0.058-0.49,0.106-0.754,0.148c-0.262,0.042-0.536,0.057-0.818,0.045
		c-0.283-0.012-0.571-0.059-0.866-0.138c-0.296-0.081-0.597-0.216-0.905-0.407c-0.332-0.205-0.557-0.416-0.673-0.631
		c-0.115-0.216-0.151-0.427-0.106-0.633c0.044-0.205,0.156-0.4,0.336-0.587c0.182-0.186,0.402-0.351,0.668-0.493
		c0.299-0.16,0.66-0.286,1.084-0.379s0.866-0.127,1.326-0.104L56.149,17.378z"/>
	<path fill="#FFFFFF" d="M57.377,15.138l3.889-2.091l1.016,0.628l-2.844,1.529l1.664,1.029l2.694-1.449l0.98,0.606l-2.694,1.448
		l1.848,1.145l2.994-1.609l1.035,0.64l-4.037,2.171L57.377,15.138z"/>
	<path fill="#FFFFFF" d="M65.104,10.984l0.904-0.486l9.073,2.688l-1.193,0.643l-2.046-0.632l-2.545,1.368l0.967,1.211l-1.168,0.629
		L65.104,10.984z M70.479,12.774l-3.566-1.161l1.743,2.142L70.479,12.774z"/>
	<path fill="#FFFFFF" d="M71.65,8.638l-1.799,0.968l-1.017-0.628l4.643-2.497l1.017,0.629l-1.799,0.967l5.528,3.419l-1.044,0.562
		L71.65,8.638z"/>
	<path fill="#FFFFFF" d="M79.348,4.907c-0.271-0.04-0.561-0.038-0.871,0.003c-0.31,0.042-0.566,0.117-0.771,0.228
		c-0.121,0.065-0.227,0.142-0.313,0.228s-0.146,0.178-0.175,0.275c-0.027,0.098-0.018,0.198,0.033,0.303
		c0.051,0.105,0.156,0.207,0.316,0.307c0.147,0.091,0.301,0.154,0.462,0.189c0.159,0.035,0.325,0.05,0.495,0.043
		c0.172-0.006,0.354-0.029,0.547-0.069s0.4-0.087,0.623-0.142c0.256-0.06,0.527-0.117,0.815-0.172s0.587-0.084,0.897-0.087
		c0.312-0.003,0.627,0.033,0.951,0.108c0.323,0.075,0.646,0.213,0.966,0.41c0.352,0.218,0.6,0.438,0.745,0.663
		c0.146,0.225,0.208,0.442,0.188,0.652c-0.021,0.211-0.117,0.413-0.291,0.606c-0.174,0.192-0.404,0.366-0.691,0.521
		c-0.382,0.205-0.833,0.357-1.355,0.456c-0.521,0.099-1.054,0.115-1.594,0.05l-0.029-0.882c0.365,0.061,0.732,0.066,1.104,0.017
		c0.369-0.05,0.67-0.136,0.902-0.261c0.121-0.065,0.229-0.143,0.322-0.232c0.092-0.089,0.15-0.186,0.173-0.291
		c0.022-0.104,0.004-0.211-0.052-0.319c-0.057-0.108-0.175-0.218-0.353-0.328c-0.173-0.107-0.354-0.177-0.538-0.208
		c-0.187-0.032-0.382-0.041-0.586-0.027c-0.205,0.014-0.421,0.047-0.649,0.098c-0.227,0.051-0.466,0.104-0.716,0.161
		c-0.238,0.057-0.489,0.105-0.753,0.147c-0.262,0.043-0.536,0.057-0.817,0.045C78.048,7.386,77.76,7.34,77.465,7.26
		s-0.597-0.216-0.904-0.407c-0.332-0.205-0.558-0.415-0.674-0.631c-0.115-0.216-0.151-0.427-0.106-0.633
		c0.044-0.205,0.156-0.4,0.336-0.587c0.181-0.186,0.403-0.35,0.669-0.492c0.298-0.161,0.659-0.287,1.083-0.38
		c0.424-0.092,0.866-0.127,1.327-0.104L79.348,4.907z"/>
</g>
</svg>
