<?xml version="1.0" encoding="utf-8"?>
<!-- Generator: Adobe Illustrator 16.0.0, SVG Export Plug-In . SVG Version: 6.00 Build 0)  -->
<!DOCTYPE svg PUBLIC "-//W3C//DTD SVG 1.1//EN" "http://www.w3.org/Graphics/SVG/1.1/DTD/svg11.dtd">
<svg version="1.1" id="Layer_1" xmlns="http://www.w3.org/2000/svg" xmlns:xlink="http://www.w3.org/1999/xlink" x="0px" y="0px"
	 width="90px" height="50px" viewBox="0 0 90 50" enable-background="new 0 0 90 50" xml:space="preserve">
<g>
	<path fill="#FFFFFF" d="M25.295,33.418l-0.832,0.447l-1.968-1.217l3.46-1.859l-0.48-0.297l-3.058,1.643l-0.612-0.379l7.02-3.773
		l0.613,0.379l-3.141,1.688l0.48,0.297l3.553-1.91l1.967,1.219l-0.86,0.463l-1.377-0.854l-2.69,1.447l2.039,1.262l-0.822,0.443
		l-2.041-1.262l-2.627,1.412L25.295,33.418z M25.365,33.346c0.451-0.314,1.008-0.73,1.591-1.186
		c-0.559,0.088-1.479,0.312-2.162,0.514l-0.221-0.4c0.634-0.211,1.534-0.459,2.103-0.541l0.28,0.428l0.233-0.184l0.557,0.301
		c-0.54,0.492-1.064,0.951-1.537,1.346L25.365,33.346z M33.15,30.562c0.307,0.508,0.375,1.025,0.299,1.549
		c0.844-0.123,1.689-0.34,2.488-0.641c0.007,0.184,0.109,0.471,0.244,0.658c-0.215,0.068-0.421,0.133-0.637,0.189l2.101,1.299
		l-0.751,0.404l-0.223-0.139l-1.584,0.852l0.244,0.15l-0.723,0.389l-2.081-1.287c-0.11,0.143-0.233,0.279-0.366,0.41
		c-0.207-0.066-0.5-0.119-0.773-0.162l0.51,0.314l-1.125,0.605l0.836,0.518c0.407-0.266,0.805-0.539,1.203-0.811l0.703,0.424
		c-1.166,0.814-2.403,1.645-3.291,2.24l-0.807-0.414l0.426-0.277l-1.959-1.211l0.65-0.35l1.896,1.174l0.516-0.348l-2.141-1.326
		l-1.145,0.615l-1.979-1.223l2.947-1.586l1.234,0.764c0.338-0.689,0.295-1.361,0.018-1.861l0.791-0.283
		c0.058,0.109,0.107,0.225,0.146,0.346l1.529-0.822l0.078-0.09L33.15,30.562z M27.727,34.635l1.537-0.826l-0.734-0.455l-1.537,0.828
		L27.727,34.635z M28.812,31.043l0.195-0.08l-0.558-0.102c0.353-0.342,0.81-0.906,1.037-1.242l0.78,0.113
		c-0.225,0.379-0.691,0.83-1.064,1.16c0.743-0.27,1.629-0.557,2.215-0.684l0.414,0.426c-0.708,0.146-1.857,0.492-2.693,0.801
		L28.812,31.043z M31.217,34.15c0.461-0.426,0.832-0.895,1.062-1.396c-0.431,0.008-0.876-0.023-1.313-0.072
		c-0.016,0.232-0.07,0.475-0.164,0.713c-0.262-0.035-0.669-0.064-0.926-0.045l0.734,0.455l-1.08,0.58l0.58,0.359L31.217,34.15z
		 M30.973,32.146l-0.005,0.051c0.485,0.045,0.985,0.059,1.512,0.023c0.087-0.307,0.087-0.613,0.03-0.9L30.973,32.146z
		 M35.027,32.443c-0.564,0.127-1.151,0.219-1.734,0.26c-0.113,0.332-0.305,0.648-0.517,0.949L35.027,32.443z M36.059,33.504
		l-0.805-0.498l-1.584,0.852l0.806,0.498L36.059,33.504z"/>
	<path fill="#FFFFFF" d="M37.535,24.078c1.728,0.074,4.053,0.274,5.366,0.536l-0.123,0.749c-0.392-0.083-0.861-0.162-1.366-0.231
		c-4.74,2.89-5.304,3.216-5.553,3.539c-0.23-0.1-0.846-0.311-1.203-0.426c0.179-0.145,0.193-0.398,0.168-0.764
		c-0.016-0.379-0.234-1.711-0.801-2.834l1.258-0.205c0.372,0.991,0.583,2.022,0.629,2.917l4.061-2.408
		c-0.881-0.091-1.793-0.167-2.594-0.208L37.535,24.078z M37.046,28.928l5.931-3.188l4.325,2.676l-0.905,0.486l-0.521-0.322
		l-4.164,2.238l0.541,0.336l-0.86,0.461L37.046,28.928z M38.814,29.027l1.979,1.225l4.164-2.24l-1.979-1.223L38.814,29.027z"/>
	<path fill="#FFFFFF" d="M46.127,22.619c1.592,0.984,3.859,2.524,4.66,3.899c-0.329-0.025-0.959,0.008-1.254,0.049
		c-0.763-1.276-2.76-2.584-4.238-3.5l-2.773-1.715l3.706-1.993c-0.396-0.106-0.847-0.206-1.227-0.272l0.509-0.615
		c0.565,0.085,1.194,0.23,1.688,0.366l2.966-1.595l0.877,0.543l-6.81,3.661L46.127,22.619z M46.958,20.699
		c0.364,0.299,0.67,0.584,0.937,0.875c0.801,0.03,1.758,0.094,2.303,0.166l0.139,0.656c-0.478-0.073-1.234-0.149-1.96-0.196
		c0.292,0.445,0.429,0.879,0.419,1.297c-0.27-0.02-0.876-0.014-1.161,0.011c0.101-0.773-0.497-1.608-1.546-2.447L46.958,20.699z
		 M54.453,23.356l3.038-1.634l0.816,0.504l-6.864,3.69l-0.816-0.504l3.011-1.619l-1.295-0.801l-2.425,1.304l-0.827-0.512
		l2.425-1.304L47.6,20.059l0.814-0.438l2.785,1.723c0.057-0.728-0.467-1.506-1.414-2.271l0.882-0.344
		c0.375,0.316,0.683,0.623,0.933,0.926c0.963,0.025,2.07,0.054,2.73,0.112l0.128,0.65c-0.595-0.07-1.55-0.122-2.437-0.152
		c0.23,0.418,0.346,0.827,0.314,1.21c-0.223-0.021-0.646-0.029-0.963-0.023l0.957,0.593l2.499-1.344l0.827,0.511l-2.498,1.344
		L54.453,23.356z"/>
	<path fill="#FFFFFF" d="M54.211,14.263c0.476,0.569,0.879,1.179,1.223,1.783l6.916,4.277l-0.859,0.463l-5.427-3.356
		c0.14,0.36,0.221,0.707,0.259,1.028c-0.306-0.095-1.062-0.277-1.435-0.338c-0.079-1.054-0.753-2.413-1.758-3.595L54.211,14.263z
		 M61.614,13.043l-4.988,2.682l-0.919-0.568l4.988-2.682L61.614,13.043z M57.854,13.945c-0.494-0.23-1.35-0.549-2.034-0.771
		l0.582-0.571c0.674,0.216,1.498,0.504,2.028,0.726L57.854,13.945z M62.726,18.165c-1.134-0.616-3.196-1.606-4.841-2.327
		l0.566-0.528c1.661,0.699,3.719,1.645,4.841,2.231L62.726,18.165z M67.287,16.161l0.908,0.562l-5.693,3.061l-0.908-0.562
		l3.176-1.707c-1.016-1.01-2.738-2.467-4.082-3.478l1.051-0.377c1.293,1.086,2.842,2.446,3.818,3.432L67.287,16.161z"/>
</g>
</svg>
