<?xml version="1.0" encoding="utf-8"?>
<!-- Generator: Adobe Illustrator 16.0.0, SVG Export Plug-In . SVG Version: 6.00 Build 0)  -->
<!DOCTYPE svg PUBLIC "-//W3C//DTD SVG 1.1//EN" "http://www.w3.org/Graphics/SVG/1.1/DTD/svg11.dtd">
<svg version="1.1" id="Layer_1" xmlns="http://www.w3.org/2000/svg" xmlns:xlink="http://www.w3.org/1999/xlink" x="0px" y="0px"
	 width="100px" height="60px" viewBox="0 0 100 60" enable-background="new 0 0 100 60" xml:space="preserve">
<g>
	<g>
		<path fill="#534741" d="M53.064,36.964c0.984-0.528,0.744-0.882-1.245-2.249c0.659-0.023,1.655-0.204,2.218-0.379
			c2.484,1.809,2.785,2.586,0.838,3.634l-4.29,2.306c-2.282,1.228-3.505,1.199-5.765-0.198l-9.853-6.094
			c0.031,0.109,0.042,0.23,0.073,0.341c-0.504-0.084-1.403-0.186-2.152-0.238l1.491,0.922l-2.065,1.111l2.744,1.696l2.007-1.079
			l1.777,1.1l-2.007,1.078l3.599,2.227l1.562-1.627l2.014,0.973c-1.729,1.843-3.531,3.776-4.882,5.238l-2.342-0.948
			c0.23-0.2,0.437-0.413,0.684-0.646l-7.461-4.614l1.496-0.805l7.044,4.357l0.756-0.762l-8.604-5.32l-2.499,1.344l-6.868-4.248
			l6.178-3.322l4.851,3c-0.31-1.534-1.491-3.333-3.069-4.946l2.094-0.593c0.439,0.499,0.881,1.022,1.281,1.543l6.355-3.417
			l0.878,0.543c7.354,4.571,9.839,6.153,10.171,6.837c0.194,0.529-0.023,0.85-0.486,1.199c-0.443,0.341-1.25,0.774-2.16,1.213
			c-0.502-0.288-1.448-0.668-2.167-0.84l-2.754,1.481l3.929,2.43c0.966,0.597,1.358,0.589,2.558-0.057L53.064,36.964z
			 M27.596,32.745l-2.951,1.587l3.379,2.09l2.951-1.587L27.596,32.745z M33.718,31.255c0.415,0.665,0.743,1.3,0.986,1.905
			l4.978-2.676l6.758,4.18l-0.217,0.117c0.377-0.178,0.672-0.336,0.85-0.432c0.255-0.137,0.367-0.272,0.264-0.496
			c-0.163-0.42-2.275-1.771-8.247-5.487L33.718,31.255z M39.795,32.352l-2.38,1.28l3.445,2.131l2.38-1.28L39.795,32.352z"/>
		<path fill="#534741" d="M47.678,23.825c-1.202-0.47-3.21-1.166-4.688-1.716l1.045-1.196c1.516,0.505,3.439,1.171,4.638,1.617
			L47.678,23.825z M56.666,25.996c1.58,1.408,3.111,2.97,4.068,4.358c0.574-0.055,1.379-0.057,2.447-0.124
			c2.299-0.171,4.221-1.052,6.523-2.289c2.4-1.291,5.508-3.19,7.385-4.555c0.334,0.456,1.047,1.239,1.576,1.589
			c-1.426,0.894-4.895,2.91-7.195,4.147c-2.578,1.386-4.512,2.146-6.869,2.35c-1.293,0.11-2.77,0.016-3.201,0.249
			c-0.434,0.232,0.324,1.475,1.111,2.598l-3.127-0.501c-0.299-0.98-0.465-1.88-0.295-2.479c-0.654-1.019-1.781-2.238-2.957-3.331
			l-2.52,1.354c-0.822-1.054-2.01-2.471-3.23-3.794l-1.987,1.068l-1.843-1.14l4.25-2.285c1.124,1.196,2.374,2.606,3.396,3.807
			l1.102-0.593l0.188-0.202L56.666,25.996z M57.111,20.606c-0.344-0.349-0.75-0.714-1.135-1.065l-4.957,2.666l-1.668-1.031
			l2.971-1.598c-0.871-0.242-2.157-0.515-3.143-0.67l0.778-1.179c1.214,0.159,2.773,0.463,3.623,0.716l-0.393,0.668l3.326-1.788
			c-0.32-0.767-0.869-1.766-1.387-2.427l2.34-0.623c0.293,0.704,0.632,1.437,0.855,2.076l3.443-1.851l1.668,1.031l-5.469,2.94
			c0.328,0.408,0.594,0.822,0.857,1.214l4.467-2.401l10.357,6.406l-9.268,4.982l-10.357-6.406L57.111,20.606z M63.013,19.184
			l-5.765,3.1l1.514,0.937l5.765-3.1L63.013,19.184z M65.887,20.962l-5.765,3.1l1.536,0.95l5.764-3.1L65.887,20.962z M68.805,22.768
			l-5.764,3.1L64.6,26.83l5.764-3.1L68.805,22.768z"/>
	</g>
</g>
</svg>
