<?xml version="1.0" encoding="utf-8"?>
<!-- Generator: Adobe Illustrator 16.0.0, SVG Export Plug-In . SVG Version: 6.00 Build 0)  -->
<!DOCTYPE svg PUBLIC "-//W3C//DTD SVG 1.1//EN" "http://www.w3.org/Graphics/SVG/1.1/DTD/svg11.dtd">
<svg version="1.1" id="Layer_1" xmlns="http://www.w3.org/2000/svg" xmlns:xlink="http://www.w3.org/1999/xlink" x="0px" y="0px"
	 width="100px" height="60px" viewBox="0 0 100 60" enable-background="new 0 0 100 60" xml:space="preserve">
<g>
	<g>
		<path fill="#534741" d="M53.23,36.959c0.984-0.528,0.744-0.882-1.245-2.249c0.659-0.023,1.655-0.204,2.218-0.379
			c2.484,1.809,2.785,2.586,0.838,3.634l-4.29,2.306c-2.282,1.228-3.505,1.199-5.765-0.198l-9.853-6.094
			c0.031,0.109,0.042,0.23,0.073,0.341c-0.504-0.084-1.403-0.186-2.152-0.238l1.491,0.922l-2.065,1.111l2.744,1.696l2.007-1.079
			l1.777,1.1l-2.007,1.078l3.599,2.227l1.562-1.627l2.014,0.973c-1.729,1.843-3.531,3.776-4.882,5.238l-2.342-0.948
			c0.23-0.2,0.437-0.413,0.684-0.646l-7.461-4.614l1.496-0.805l7.044,4.357l0.756-0.762l-8.604-5.32l-2.499,1.344L21.5,34.077
			l6.178-3.322l4.851,3c-0.31-1.534-1.491-3.334-3.069-4.947l2.094-0.593c0.439,0.5,0.881,1.023,1.281,1.544l6.355-3.417
			l0.878,0.543c7.354,4.571,9.839,6.153,10.171,6.837c0.194,0.529-0.023,0.85-0.486,1.199c-0.443,0.341-1.25,0.774-2.16,1.213
			c-0.502-0.288-1.448-0.668-2.167-0.84l-2.754,1.481l3.929,2.43c0.966,0.597,1.358,0.589,2.558-0.057L53.23,36.959z M27.762,32.74
			l-2.951,1.587l3.379,2.09l2.951-1.587L27.762,32.74z M33.884,31.249c0.415,0.666,0.743,1.301,0.986,1.906l4.978-2.676l6.758,4.18
			l-0.217,0.117c0.377-0.178,0.672-0.336,0.85-0.432c0.255-0.137,0.367-0.272,0.264-0.496c-0.163-0.42-2.275-1.771-8.247-5.487
			L33.884,31.249z M39.961,32.347l-2.38,1.28l3.445,2.131l2.38-1.28L39.961,32.347z"/>
		<path fill="#534741" d="M50.078,24.065c-1.56-0.328-4.317-0.646-6.461-0.789l0.408-1.386c2.076,0.102,4.808,0.357,6.388,0.675
			L50.078,24.065z M57.371,20.728c-0.387-0.375-0.82-0.803-1.248-1.181l-4.938,2.655l-1.668-1.031l3.01-1.619
			c-0.892-0.256-2.263-0.559-3.333-0.72l0.833-1.259c1.213,0.159,2.833,0.455,3.728,0.735l-0.499,0.852l3.403-1.83
			c-0.319-0.766-0.868-1.766-1.366-2.437l2.32-0.613c0.293,0.705,0.632,1.437,0.855,2.077l3.443-1.852l1.668,1.031l-5.469,2.941
			c0.354,0.469,0.705,0.914,0.971,1.329l4.565-2.454l10.358,6.406l-9.504,5.109l-10.357-6.406L57.371,20.728z M62.012,29.853
			c0.612-0.075,1.418-0.077,2.441-0.196c2.023-0.226,3.889-1.051,6.014-2.193c2.145-1.153,4.943-2.835,6.568-4.013
			c0.289,0.428,0.955,1.136,1.465,1.496c-1.248,0.798-4.422,2.657-6.291,3.662c-2.303,1.237-4.258,1.984-6.467,2.232
			c-1.373,0.129-2.637,0.099-3.09,0.342c-0.669,0.359-0.465,1.646-0.135,2.965l-2.791-0.452c-0.087-1.146,0.041-2.205,0.512-2.914
			l-6.407-3.964l-2.538,1.365l-1.889-1.168l4.289-2.306L62.012,29.853z M63.33,19.25l-5.98,3.216l1.535,0.949l5.98-3.216
			L63.33,19.25z M66.227,21.041l-5.982,3.216l1.537,0.95l5.982-3.216L66.227,21.041z M69.146,22.847l-5.982,3.216l1.557,0.963
			l5.982-3.216L69.146,22.847z"/>
	</g>
</g>
</svg>
