<?xml version="1.0" encoding="utf-8"?>
<!-- Generator: Adobe Illustrator 16.0.0, SVG Export Plug-In . SVG Version: 6.00 Build 0)  -->
<!DOCTYPE svg PUBLIC "-//W3C//DTD SVG 1.1//EN" "http://www.w3.org/Graphics/SVG/1.1/DTD/svg11.dtd">
<svg version="1.1" id="Layer_1" xmlns="http://www.w3.org/2000/svg" xmlns:xlink="http://www.w3.org/1999/xlink" x="0px" y="0px"
	 width="100px" height="60px" viewBox="0 0 100 60" enable-background="new 0 0 100 60" xml:space="preserve">
<g>
	<g>
		<path fill="#534741" d="M12.789,44.85l-4.271,2.295l-2.413-1.492l11.02-5.926l2.413,1.494l-4.27,2.295l13.12,8.115l-2.479,1.332
			L12.789,44.85z"/>
		<path fill="#534741" d="M20.706,37.803l4.841-2.604c0.656-0.352,1.369-0.646,2.139-0.885c0.771-0.236,1.57-0.373,2.4-0.414
			c0.829-0.041,1.674,0.037,2.533,0.236c0.858,0.197,1.698,0.549,2.518,1.057c1.126,0.695,1.759,1.418,1.897,2.162
			c0.139,0.746-0.16,1.461-0.895,2.143l10.607,2.262l-2.99,1.607l-9.81-2.336l-1.811,0.975l6.582,4.07l-2.479,1.334L20.706,37.803z
			 M31.904,39.518c0.354-0.189,0.679-0.398,0.975-0.625c0.295-0.227,0.504-0.465,0.625-0.717c0.122-0.25,0.124-0.52,0.008-0.803
			c-0.116-0.285-0.408-0.57-0.877-0.861c-0.424-0.262-0.856-0.432-1.297-0.508c-0.441-0.074-0.874-0.092-1.297-0.051
			c-0.423,0.043-0.832,0.135-1.225,0.279c-0.393,0.143-0.747,0.299-1.062,0.469l-2.243,1.205l4.366,2.701L31.904,39.518z"/>
		<path fill="#534741" d="M39.42,27.741l2.145-1.153L63.1,32.969l-2.834,1.523l-4.852-1.5l-6.041,3.248l2.294,2.875l-2.774,1.492
			L39.42,27.741z M52.179,31.992l-8.464-2.755l4.135,5.083L52.179,31.992z"/>
		<path fill="#534741" d="M64.254,18.599c-0.923-0.146-1.808-0.14-2.654,0.02c-0.846,0.159-1.551,0.391-2.115,0.694
			c-0.721,0.388-1.23,0.831-1.529,1.329c-0.297,0.499-0.404,1.021-0.318,1.566c0.086,0.546,0.357,1.093,0.815,1.642
			c0.458,0.549,1.089,1.072,1.894,1.569c0.85,0.525,1.736,0.944,2.66,1.259c0.926,0.314,1.848,0.517,2.765,0.606
			c0.919,0.09,1.806,0.066,2.659-0.072c0.855-0.139,1.645-0.402,2.365-0.79c0.748-0.402,1.246-0.86,1.494-1.374
			s0.279-1.034,0.092-1.559l3.545-0.104c0.246,0.865,0.162,1.685-0.255,2.458c-0.417,0.773-1.224,1.48-2.417,2.123
			c-1.089,0.585-2.29,0.999-3.604,1.241c-1.314,0.241-2.66,0.314-4.041,0.219s-2.754-0.354-4.123-0.776s-2.66-1.008-3.875-1.76
			c-1.243-0.769-2.173-1.567-2.787-2.395c-0.615-0.828-0.937-1.641-0.963-2.438c-0.026-0.797,0.23-1.56,0.768-2.29
			c0.539-0.729,1.346-1.382,2.421-1.96c0.446-0.24,0.958-0.461,1.538-0.664c0.582-0.202,1.193-0.362,1.838-0.479
			c0.643-0.118,1.308-0.192,1.994-0.223c0.686-0.03,1.371,0.007,2.057,0.112L64.254,18.599z"/>
		<path fill="#534741" d="M66.221,13.332l2.479-1.333l6.714,4.152l0.059-0.032l-0.889-7.284l3.346-1.799l0.66,7.939l15.305,1.436
			l-3.482,1.873l-13.908-1.527l-0.06,0.032l7.789,4.817l-2.479,1.333L66.221,13.332z"/>
	</g>
</g>
</svg>
