<?xml version="1.0" encoding="utf-8"?>
<!-- Generator: Adobe Illustrator 16.0.0, SVG Export Plug-In . SVG Version: 6.00 Build 0)  -->
<!DOCTYPE svg PUBLIC "-//W3C//DTD SVG 1.1//EN" "http://www.w3.org/Graphics/SVG/1.1/DTD/svg11.dtd">
<svg version="1.1" id="Layer_1" xmlns="http://www.w3.org/2000/svg" xmlns:xlink="http://www.w3.org/1999/xlink" x="0px" y="0px"
	 width="60px" height="60px" viewBox="0 0 60 60" enable-background="new 0 0 60 60" xml:space="preserve">
<g>
	<circle fill="none" stroke="#FFFFFF" stroke-miterlimit="10" cx="30" cy="24.979" r="12.479"/>
	<g>
		<g>
			<path fill="none" stroke="#FFFFFF" stroke-miterlimit="10" d="M30.216,15.628c0.518,0,0.927,0.41,0.927,0.929v0.475
				c1.274,0.151,2.354,0.562,3.346,1.188c0.348,0.193,0.648,0.517,0.648,1.036c0,0.67-0.539,1.188-1.209,1.188
				c-0.215,0-0.432-0.065-0.645-0.194c-0.757-0.453-1.492-0.777-2.227-0.95v4.146c3.282,0.82,4.688,2.139,4.688,4.448
				c0,2.376-1.858,3.95-4.602,4.211v1.294c0,0.521-0.409,0.93-0.927,0.93c-0.519,0-0.952-0.409-0.952-0.93v-1.336
				c-1.619-0.174-3.109-0.757-4.425-1.686c-0.367-0.237-0.585-0.584-0.585-1.037c0-0.669,0.52-1.186,1.188-1.186
				c0.26,0,0.519,0.084,0.712,0.236c1.015,0.734,2.009,1.23,3.196,1.446v-4.253c-3.151-0.821-4.621-2.009-4.621-4.449
				c0-2.312,1.836-3.909,4.534-4.125v-0.453C29.265,16.038,29.697,15.628,30.216,15.628z M29.351,22.992v-3.823
				c-1.381,0.13-2.072,0.864-2.072,1.814C27.279,21.89,27.689,22.452,29.351,22.992z M31.058,25.994v3.929
				c1.383-0.15,2.138-0.842,2.138-1.878C33.195,27.095,32.721,26.513,31.058,25.994z"/>
		</g>
	</g>
	<rect x="17.521" y="45.065" fill="none" stroke="#FFFFFF" stroke-miterlimit="10" width="24.957" height="2.435"/>
</g>
</svg>
