<?xml version="1.0" encoding="utf-8"?>
<!-- Generator: Adobe Illustrator 16.0.0, SVG Export Plug-In . SVG Version: 6.00 Build 0)  -->
<!DOCTYPE svg PUBLIC "-//W3C//DTD SVG 1.1//EN" "http://www.w3.org/Graphics/SVG/1.1/DTD/svg11.dtd">
<svg version="1.1" id="Layer_1" xmlns="http://www.w3.org/2000/svg" xmlns:xlink="http://www.w3.org/1999/xlink" x="0px" y="0px"
	 width="85px" height="85px" viewBox="0 0 85 85" enable-background="new 0 0 85 85" xml:space="preserve">
<g>
	<circle fill="none" stroke="#534741" stroke-miterlimit="10" cx="42.5" cy="36.484" r="14.949"/>
	<g>
		<g>
			<path fill="none" stroke="#534741" stroke-miterlimit="10" d="M42.759,25.283c0.622,0,1.111,0.491,1.111,1.112v0.568
				c1.526,0.182,2.82,0.673,4.008,1.424c0.416,0.232,0.777,0.619,0.777,1.241c0,0.803-0.646,1.423-1.448,1.423
				c-0.258,0-0.517-0.078-0.773-0.232c-0.906-0.543-1.787-0.932-2.667-1.139v4.968c3.933,0.982,5.616,2.562,5.616,5.329
				c0,2.846-2.227,4.732-5.513,5.044v1.551c0,0.623-0.489,1.113-1.111,1.113c-0.621,0-1.14-0.49-1.14-1.113v-1.602
				c-1.939-0.207-3.725-0.906-5.301-2.019c-0.44-0.284-0.701-0.699-0.701-1.242c0-0.802,0.623-1.421,1.424-1.421
				c0.311,0,0.621,0.102,0.854,0.283c1.216,0.88,2.406,1.475,3.828,1.733v-5.096c-3.775-0.983-5.535-2.406-5.535-5.33
				c0-2.769,2.199-4.683,5.432-4.941v-0.543C41.619,25.774,42.138,25.283,42.759,25.283z M41.723,34.105v-4.58
				c-1.654,0.155-2.482,1.035-2.482,2.173C39.24,32.784,39.731,33.458,41.723,34.105z M43.767,37.701v4.707
				c1.656-0.181,2.562-1.009,2.562-2.25C46.328,39.019,45.76,38.322,43.767,37.701z"/>
		</g>
	</g>
	<rect x="27.551" y="60.549" fill="none" stroke="#534741" stroke-miterlimit="10" width="29.898" height="2.916"/>
</g>
</svg>
