<?xml version="1.0" encoding="utf-8"?>
<!-- Generator: Adobe Illustrator 16.0.0, SVG Export Plug-In . SVG Version: 6.00 Build 0)  -->
<!DOCTYPE svg PUBLIC "-//W3C//DTD SVG 1.1//EN" "http://www.w3.org/Graphics/SVG/1.1/DTD/svg11.dtd">
<svg version="1.1" id="Layer_1" xmlns="http://www.w3.org/2000/svg" xmlns:xlink="http://www.w3.org/1999/xlink" x="0px" y="0px"
	 width="85px" height="85px" viewBox="0 0 85 85" enable-background="new 0 0 85 85" xml:space="preserve">
<g>
	<g>
		<path fill="none" stroke="#534741" stroke-miterlimit="10" d="M40.806,56.165v2.014c0,0.952,0.77,1.72,1.718,1.72
			c0.95,0,1.719-0.768,1.719-1.72v-2.014c0-0.637-1.25-2.52-1.714-2.759C42.061,53.646,40.806,55.528,40.806,56.165z"/>
	</g>
	<path fill="none" stroke="#534741" stroke-miterlimit="10" d="M49.028,27.806c-1.803-1.804-4.166-2.705-6.529-2.705
		c-2.361,0-4.725,0.902-6.526,2.705c-1.804,1.803-2.706,4.166-2.705,6.528l3.463,0c-0.001-1.477,0.562-2.953,1.689-4.081
		c1.126-1.125,2.604-1.689,4.08-1.689s2.954,0.564,4.08,1.689c1.127,1.127,1.69,2.604,1.69,4.081c0,1.477-0.563,2.955-1.69,4.081
		c-1.126,1.126-5.762,4.59-5.762,11.595c0,0.381,0,1.233,0,1.233c0.052,0.275,1.175,1.89,1.708,2.163
		c0.51-0.26,1.651-1.883,1.705-2.163c0,0,0-0.832,0-1.233c0-6.059,2.994-7.344,4.797-9.147c1.803-1.803,2.705-4.165,2.704-6.529
		C51.732,31.971,50.831,29.608,49.028,27.806z"/>
</g>
</svg>
