<?xml version="1.0" encoding="utf-8"?>
<!-- Generator: Adobe Illustrator 16.0.0, SVG Export Plug-In . SVG Version: 6.00 Build 0)  -->
<!DOCTYPE svg PUBLIC "-//W3C//DTD SVG 1.1//EN" "http://www.w3.org/Graphics/SVG/1.1/DTD/svg11.dtd">
<svg version="1.1" id="Layer_1" xmlns="http://www.w3.org/2000/svg" xmlns:xlink="http://www.w3.org/1999/xlink" x="0px" y="0px"
	 width="60px" height="60px" viewBox="0 0 60 60" enable-background="new 0 0 60 60" xml:space="preserve">
<g>
	<g>
		<path fill="none" stroke="#FFFFFF" stroke-miterlimit="10" d="M28.055,45.715v2.312c0,1.093,0.883,1.974,1.972,1.974
			C31.117,50,32,49.119,32,48.026v-2.312c0-0.73-1.436-2.892-1.968-3.166C29.496,42.823,28.055,44.984,28.055,45.715z"/>
	</g>
	<path fill="none" stroke="#FFFFFF" stroke-miterlimit="10" d="M37.493,13.166c-2.069-2.07-4.782-3.105-7.494-3.105
		c-2.71,0-5.423,1.036-7.491,3.105c-2.071,2.069-3.105,4.781-3.105,7.493l3.975,0c-0.001-1.695,0.646-3.39,1.939-4.684
		c1.292-1.292,2.988-1.939,4.683-1.939c1.694,0,3.391,0.647,4.683,1.939c1.294,1.294,1.94,2.989,1.94,4.684
		c0,1.695-0.646,3.391-1.94,4.684c-1.292,1.293-6.613,5.268-6.613,13.308c0,0.437,0,1.415,0,1.415
		c0.06,0.316,1.349,2.169,1.96,2.483c0.585-0.299,1.896-2.161,1.957-2.483c0,0,0-0.954,0-1.415c0-6.954,3.437-8.429,5.506-10.499
		c2.069-2.069,3.104-4.781,3.104-7.494C40.597,17.946,39.562,15.234,37.493,13.166z"/>
</g>
</svg>
