<?xml version="1.0" encoding="utf-8"?>
<!-- Generator: Adobe Illustrator 16.0.0, SVG Export Plug-In . SVG Version: 6.00 Build 0)  -->
<!DOCTYPE svg PUBLIC "-//W3C//DTD SVG 1.1//EN" "http://www.w3.org/Graphics/SVG/1.1/DTD/svg11.dtd">
<svg version="1.1" id="Layer_1" xmlns="http://www.w3.org/2000/svg" xmlns:xlink="http://www.w3.org/1999/xlink" x="0px" y="0px"
	 width="60px" height="60px" viewBox="0 0 60 60" enable-background="new 0 0 60 60" xml:space="preserve">
<g>
	<g>
		<g>
			<path fill="none" stroke="#FFFFFF" stroke-miterlimit="10" d="M32.312,15.573v-1.214c0-1.025-0.831-1.858-1.856-1.858
				c-1.026,0-1.859,0.833-1.859,1.858v1.214c0,0.688,0.373,1.286,0.929,1.61h0.002l0.929,0.483l0.928-0.482
				C31.94,16.862,32.312,16.261,32.312,15.573z"/>
		</g>
		<path fill="none" stroke="#FFFFFF" stroke-miterlimit="10" d="M34.623,30.193c0,0,1.205-8.195,1.206-8.286
			c0-0.881-0.477-1.646-1.184-2.054l-4.189-2.188l-4.192,2.188c-0.707,0.412-1.182,1.175-1.182,2.051
			c0,0.192,1.298,9.479,1.298,9.479c0.135,0.974,0.417,1.692,1.162,2.337c0.751,0.646,1.888,0.676,2.812,0.676
			c0.923,0,8.148,0,8.148,0c1.117-0.002,1.426,0.76,1.812,1.633c0.137,0.31,3.515,7.906,3.515,7.906h2.393"/>
	</g>
	<path fill="none" stroke="#FFFFFF" stroke-miterlimit="10" d="M38.298,41.704c-1.71,3.436-5.258,5.796-9.36,5.796
		c-5.771,0-10.451-4.679-10.451-10.452c0-3.213,1.451-6.087,3.729-8.004"/>
</g>
</svg>
