<?xml version="1.0" encoding="utf-8"?>
<!-- Generator: Adobe Illustrator 16.0.0, SVG Export Plug-In . SVG Version: 6.00 Build 0)  -->
<!DOCTYPE svg PUBLIC "-//W3C//DTD SVG 1.1//EN" "http://www.w3.org/Graphics/SVG/1.1/DTD/svg11.dtd">
<svg version="1.1" id="Layer_1" xmlns="http://www.w3.org/2000/svg" xmlns:xlink="http://www.w3.org/1999/xlink" x="0px" y="0px"
	 width="85px" height="85px" viewBox="0 0 85 85" enable-background="new 0 0 85 85" xml:space="preserve">
<g>
	<g>
		<g>
			<path fill="none" stroke="#534741" stroke-miterlimit="10" d="M42.449,24.774v-1.492c0-1.26-1.021-2.283-2.281-2.283
				c-1.261,0-2.284,1.023-2.284,2.283v1.492c0,0.846,0.458,1.58,1.141,1.979h0.002l1.142,0.594l1.14-0.592
				C41.992,26.358,42.449,25.62,42.449,24.774z"/>
		</g>
		<path fill="none" stroke="#534741" stroke-miterlimit="10" d="M45.287,42.737c0,0,1.48-10.068,1.482-10.18
			c0-1.082-0.586-2.021-1.455-2.523l-5.146-2.688l-5.15,2.688c-0.868,0.506-1.452,1.443-1.452,2.52
			c0,0.236,1.595,11.646,1.595,11.646c0.166,1.195,0.512,2.08,1.427,2.871c0.923,0.795,2.32,0.83,3.455,0.83
			c1.134,0,10.011,0,10.011,0c1.373-0.002,1.752,0.934,2.227,2.006c0.168,0.381,4.318,9.715,4.318,9.715h2.939"/>
	</g>
	<path fill="none" stroke="#534741" stroke-miterlimit="10" d="M49.803,56.88c-2.102,4.221-6.461,7.121-11.5,7.121
		c-7.091,0-12.84-5.748-12.84-12.842c0-3.947,1.782-7.479,4.582-9.834"/>
</g>
</svg>
