<?xml version="1.0" encoding="utf-8"?>
<!-- Generator: Adobe Illustrator 16.0.0, SVG Export Plug-In . SVG Version: 6.00 Build 0)  -->
<!DOCTYPE svg PUBLIC "-//W3C//DTD SVG 1.1//EN" "http://www.w3.org/Graphics/SVG/1.1/DTD/svg11.dtd">
<svg version="1.1" id="Layer_1" xmlns="http://www.w3.org/2000/svg" xmlns:xlink="http://www.w3.org/1999/xlink" x="0px" y="0px"
	 width="60px" height="60px" viewBox="0 0 60 60" enable-background="new 0 0 60 60" xml:space="preserve">
<g>
	<g>
		<path fill="none" stroke="#FFFFFF" stroke-miterlimit="10" d="M32.078,14.399v-1.265c0-1.069-0.865-1.936-1.936-1.936
			c-1.07,0-1.939,0.866-1.939,1.936v1.265c0,0.719,0.392,1.347,0.974,1.681c0.036,0.021,0.438,0.229,0.961,0.498
			c0.525-0.269,0.931-0.478,0.969-0.498C31.688,15.744,32.078,15.118,32.078,14.399z"/>
	</g>
	<path fill="none" stroke="#FFFFFF" stroke-miterlimit="10" d="M31.209,37.407c0-1.206,0.979-2.186,2.184-2.186h-0.009
		c1.302,0,2.356-1.054,2.356-2.356c0-0.781-2.101-13.549-2.101-13.549c-0.106-0.562-0.312-1.07-0.771-1.337
		c0,0-1.637-0.838-2.73-1.401c-1.044,0.534-2.575,1.314-2.727,1.401c-0.461,0.267-0.662,0.767-0.771,1.337
		c0,0-2.1,12.727-2.1,13.549c0,1.303,1.054,2.356,2.356,2.356c1.207,0,2.184,0.979,2.184,2.186l-0.004,12.729
		c0,0.587,0.476,1.063,1.063,1.063c0.586,0,1.062-0.477,1.062-1.063L31.209,37.407z"/>
</g>
</svg>
