<?xml version="1.0" encoding="utf-8"?>
<!-- Generator: Adobe Illustrator 16.0.0, SVG Export Plug-In . SVG Version: 6.00 Build 0)  -->
<!DOCTYPE svg PUBLIC "-//W3C//DTD SVG 1.1//EN" "http://www.w3.org/Graphics/SVG/1.1/DTD/svg11.dtd">
<svg version="1.1" id="Layer_1" xmlns="http://www.w3.org/2000/svg" xmlns:xlink="http://www.w3.org/1999/xlink" x="0px" y="0px"
	 width="85px" height="85px" viewBox="0 0 85 85" enable-background="new 0 0 85 85" xml:space="preserve">
<g>
	<g>
		<path fill="none" stroke="#534741" stroke-miterlimit="10" d="M44.711,23.327v-1.443c0-1.221-0.988-2.209-2.209-2.209
			s-2.213,0.988-2.213,2.209v1.443c0,0.82,0.447,1.537,1.111,1.918c0.041,0.023,0.5,0.262,1.097,0.568
			c0.6-0.307,1.063-0.545,1.106-0.568C44.266,24.862,44.711,24.147,44.711,23.327z"/>
	</g>
	<path fill="none" stroke="#534741" stroke-miterlimit="10" d="M43.719,49.587c0-1.377,1.117-2.494,2.492-2.494h-0.01
		c1.486,0,2.689-1.203,2.689-2.689c0-0.893-2.396-15.465-2.396-15.465c-0.123-0.641-0.355-1.221-0.881-1.525
		c0,0-1.867-0.957-3.116-1.6c-1.191,0.609-2.939,1.5-3.113,1.6c-0.525,0.305-0.754,0.875-0.879,1.525c0,0-2.396,14.525-2.396,15.465
		c0,1.486,1.203,2.689,2.689,2.689c1.377,0,2.492,1.117,2.492,2.494l-0.004,14.525c0,0.67,0.543,1.213,1.213,1.213
		s1.212-0.543,1.212-1.213L43.719,49.587z"/>
</g>
</svg>
