<?xml version="1.0" encoding="utf-8"?>
<!-- Generator: Adobe Illustrator 16.0.0, SVG Export Plug-In . SVG Version: 6.00 Build 0)  -->
<!DOCTYPE svg PUBLIC "-//W3C//DTD SVG 1.1//EN" "http://www.w3.org/Graphics/SVG/1.1/DTD/svg11.dtd">
<svg version="1.1" id="Layer_1" xmlns="http://www.w3.org/2000/svg" xmlns:xlink="http://www.w3.org/1999/xlink" x="0px" y="0px"
	 width="60px" height="60px" viewBox="0 0 60 60" enable-background="new 0 0 60 60" xml:space="preserve">
<g>
	<g>
		<path fill="none" stroke="#FFFFFF" stroke-miterlimit="10" d="M28.733,17.436c0,0-0.292-7.436-0.651-7.436
			s-0.651,0.292-0.651,0.651v4.52c0,0.36-0.291,0.649-0.65,0.649c-0.36,0-0.651-0.289-0.651-0.649l-0.162-4.52
			c0-0.359-0.288-0.651-0.488-0.651c-0.201,0-0.489,0.292-0.489,0.651l-0.163,4.52c0,0.36-0.292,0.649-0.65,0.649
			c-0.36,0-0.651-0.289-0.651-0.649v-4.52c0-0.359-0.292-0.651-0.651-0.651c-0.359,0-0.65,7.436-0.65,7.436
			c0,0.832,0.317,1.664,0.953,2.3l2.301,2.327l2.301-2.327C28.416,19.1,28.733,18.268,28.733,17.436z"/>
		<path fill="none" stroke="#FFFFFF" stroke-miterlimit="10" d="M24.252,23.81v24.963c0,0.316,0.12,0.63,0.359,0.869
			c0.48,0.478,1.257,0.478,1.735,0c0.24-0.239,0.36-0.553,0.36-0.869V23.81c0-0.313-0.12-0.629-0.36-0.868l-0.867-0.879
			l-0.868,0.879C24.372,23.181,24.252,23.496,24.252,23.81z"/>
	</g>
	<g>
		<path fill="none" stroke="#FFFFFF" stroke-miterlimit="10" d="M35.319,34.273v14.499c0,0.316,0.121,0.63,0.36,0.869
			c0.479,0.478,1.257,0.478,1.736,0c0.238-0.239,0.358-0.553,0.358-0.869V34.273c0-0.314-0.12-0.628-0.358-0.868L36.547,32.1
			l-0.867,1.306C35.44,33.646,35.319,33.959,35.319,34.273z"/>
		<path fill="none" stroke="#FFFFFF" stroke-miterlimit="10" d="M37.774,29.925V11.228c0-0.313-0.12-0.627-0.358-0.867
			c-0.479-0.479-1.258-0.479-1.736,0l-2.972,15.964l2.972,4.47l0,0l0.867,1.306l0.869-1.306
			C37.654,30.554,37.774,30.24,37.774,29.925z"/>
	</g>
</g>
</svg>
