<?xml version="1.0" encoding="utf-8"?>
<!-- Generator: Adobe Illustrator 16.0.0, SVG Export Plug-In . SVG Version: 6.00 Build 0)  -->
<!DOCTYPE svg PUBLIC "-//W3C//DTD SVG 1.1//EN" "http://www.w3.org/Graphics/SVG/1.1/DTD/svg11.dtd">
<svg version="1.1" id="Layer_1" xmlns="http://www.w3.org/2000/svg" xmlns:xlink="http://www.w3.org/1999/xlink" x="0px" y="0px"
	 width="85px" height="85px" viewBox="0 0 85 85" enable-background="new 0 0 85 85" xml:space="preserve">
<g>
	<g>
		<path fill="none" stroke="#534741" stroke-miterlimit="10" d="M41.009,27.704c0,0-0.344-8.754-0.767-8.754
			s-0.767,0.344-0.767,0.766v5.322c0,0.424-0.343,0.766-0.766,0.766c-0.424,0-0.767-0.342-0.767-0.766l-0.191-5.322
			c0-0.422-0.339-0.766-0.575-0.766s-0.575,0.344-0.575,0.766l-0.191,5.322c0,0.424-0.343,0.766-0.766,0.766
			c-0.424,0-0.767-0.342-0.767-0.766v-5.322c0-0.422-0.344-0.766-0.767-0.766s-0.766,8.754-0.766,8.754
			c0,0.98,0.374,1.961,1.122,2.709l2.709,2.74l2.71-2.74C40.635,29.665,41.009,28.685,41.009,27.704z"/>
		<path fill="none" stroke="#534741" stroke-miterlimit="10" d="M35.731,35.21v29.395c0,0.371,0.142,0.74,0.424,1.023
			c0.564,0.562,1.479,0.562,2.043,0c0.283-0.283,0.424-0.652,0.424-1.023V35.21c0-0.369-0.141-0.74-0.424-1.021l-1.021-1.035
			l-1.021,1.035C35.873,34.47,35.731,34.841,35.731,35.21z"/>
	</g>
	<g>
		<path fill="none" stroke="#534741" stroke-miterlimit="10" d="M48.764,47.532v17.072c0,0.371,0.142,0.74,0.424,1.023
			c0.564,0.562,1.479,0.562,2.044,0c0.282-0.283,0.423-0.652,0.423-1.023V47.532c0-0.371-0.141-0.74-0.423-1.023l-1.022-1.537
			l-1.021,1.537C48.905,46.792,48.764,47.161,48.764,47.532z"/>
		<path fill="none" stroke="#534741" stroke-miterlimit="10" d="M51.654,42.411V20.396c0-0.369-0.141-0.738-0.423-1.021
			c-0.564-0.564-1.479-0.564-2.044,0l-3.499,18.797l3.499,5.264l0,0l1.021,1.537l1.022-1.537
			C51.514,43.151,51.654,42.782,51.654,42.411z"/>
	</g>
</g>
</svg>
