<?xml version="1.0" encoding="utf-8"?>
<!-- Generator: Adobe Illustrator 16.0.0, SVG Export Plug-In . SVG Version: 6.00 Build 0)  -->
<!DOCTYPE svg PUBLIC "-//W3C//DTD SVG 1.1//EN" "http://www.w3.org/Graphics/SVG/1.1/DTD/svg11.dtd">
<svg version="1.1" id="Layer_1" xmlns="http://www.w3.org/2000/svg" xmlns:xlink="http://www.w3.org/1999/xlink" x="0px" y="0px"
	 width="85px" height="85px" viewBox="0 0 85 85" enable-background="new 0 0 85 85" xml:space="preserve">
<g>
	<g>
		<path fill="none" stroke="#534741" stroke-miterlimit="10" d="M44.712,23.327v-1.443c0-1.221-0.989-2.209-2.21-2.209
			c-1.222,0-2.211,0.988-2.211,2.209v1.443c0,0.818,0.444,1.533,1.104,1.914l0.001,0.002l1.104,0.578l1.103-0.576
			C44.266,24.862,44.712,24.147,44.712,23.327z"/>
	</g>
	<path fill="none" stroke="#534741" stroke-miterlimit="10" d="M41.293,64.112c0,0.67,0.543,1.213,1.213,1.213
		c0.669,0,1.212-0.543,1.212-1.213V49.067c0-0.867,0.498-1.619,1.225-1.98l0,0c0.001,0,0,0,0,0c1.299-0.748,2.219-2.078,2.414-3.631
		c0,0,1.534-12.369,1.535-12.594V30.86l0,0l0,0c0-1.043-0.567-1.955-1.408-2.441l-4.982-2.598l-4.984,2.6
		c-0.842,0.486-1.408,1.398-1.408,2.439c0,0.229,1.546,12.65,1.546,12.65c0.211,1.535,1.132,2.844,2.423,3.582
		c0.007,0.006,0.015,0.008,0.021,0.012c0.71,0.367,1.195,1.109,1.195,1.963V64.112z"/>
</g>
</svg>
