<?xml version="1.0" encoding="utf-8"?>
<!-- Generator: Adobe Illustrator 16.0.0, SVG Export Plug-In . SVG Version: 6.00 Build 0)  -->
<!DOCTYPE svg PUBLIC "-//W3C//DTD SVG 1.1//EN" "http://www.w3.org/Graphics/SVG/1.1/DTD/svg11.dtd">
<svg version="1.1" id="Layer_1" xmlns="http://www.w3.org/2000/svg" xmlns:xlink="http://www.w3.org/1999/xlink" x="0px" y="0px"
	 width="60px" height="60px" viewBox="0 0 60 60" enable-background="new 0 0 60 60" xml:space="preserve">
<g>
	<g>
		<path fill="none" stroke="#FFFFFF" stroke-miterlimit="10" d="M31.938,13.2v-1.265c0-1.07-0.867-1.936-1.937-1.936
			c-1.071,0-1.938,0.866-1.938,1.936V13.2c0,0.717,0.389,1.344,0.968,1.677l0.001,0.001l0.968,0.507l0.966-0.505
			C31.547,14.545,31.938,13.919,31.938,13.2z"/>
	</g>
	<path fill="none" stroke="#FFFFFF" stroke-miterlimit="10" d="M28.942,48.938c0,0.587,0.476,1.062,1.063,1.062
		c0.585,0,1.062-0.476,1.062-1.062V35.755c0-0.76,0.437-1.419,1.072-1.735l0,0c0.001,0,0,0,0,0c1.139-0.656,1.944-1.821,2.115-3.182
		c0,0,1.345-10.838,1.346-11.035v-0.001l0,0l0,0c0-0.914-0.497-1.713-1.234-2.14l-4.365-2.276l-4.368,2.278
		c-0.737,0.426-1.234,1.225-1.234,2.138c0,0.2,1.354,11.084,1.354,11.084c0.185,1.345,0.992,2.491,2.123,3.139
		c0.006,0.005,0.013,0.007,0.018,0.01c0.622,0.322,1.047,0.973,1.047,1.721V48.938z"/>
</g>
</svg>
