<?xml version="1.0" encoding="utf-8"?>
<!-- Generator: Adobe Illustrator 16.0.0, SVG Export Plug-In . SVG Version: 6.00 Build 0)  -->
<!DOCTYPE svg PUBLIC "-//W3C//DTD SVG 1.1//EN" "http://www.w3.org/Graphics/SVG/1.1/DTD/svg11.dtd">
<svg version="1.1" id="Layer_1" xmlns="http://www.w3.org/2000/svg" xmlns:xlink="http://www.w3.org/1999/xlink" x="0px" y="0px"
	 width="85px" height="85px" viewBox="0 0 85 85" enable-background="new 0 0 85 85" xml:space="preserve">
<g>
	<path fill="none" stroke="#534741" stroke-miterlimit="10" d="M46.939,31.863c0,2.452-1.989,4.438-4.44,4.438
		c-2.449,0-4.438-1.986-4.438-4.438h-6.512v33.442h6.512c0-2.452,1.989-4.438,4.438-4.438c2.451,0,4.44,1.986,4.44,4.438h6.512
		V31.863H46.939z"/>
	<line fill="none" stroke="#534741" stroke-miterlimit="10" x1="46.684" y1="40.61" x2="46.684" y2="53.634"/>
	<line fill="none" stroke="#534741" stroke-miterlimit="10" x1="44.36" y1="40.539" x2="44.36" y2="49.469"/>
	<line fill="none" stroke="#534741" stroke-miterlimit="10" x1="42.041" y1="40.539" x2="42.041" y2="52.401"/>
	<circle fill="none" stroke="#534741" stroke-miterlimit="10" cx="42.5" cy="20.953" r="5.259"/>
	<line fill="none" stroke="#534741" stroke-miterlimit="10" x1="42.501" y1="17.645" x2="42.501" y2="24.262"/>
	<path fill="none" stroke="#534741" stroke-miterlimit="10" d="M40.844,22.875c0.312,0.271,0.771,0.479,1.297,0.555
		c1.055,0.154,1.99-0.277,2.09-0.96c0.291-1.999-3.759-0.996-3.459-3.032c0.099-0.683,1.035-1.112,2.09-0.96
		c0.525,0.079,0.984,0.284,1.296,0.559"/>
</g>
</svg>
