<?xml version="1.0" encoding="utf-8"?>
<!-- Generator: Adobe Illustrator 16.0.0, SVG Export Plug-In . SVG Version: 6.00 Build 0)  -->
<!DOCTYPE svg PUBLIC "-//W3C//DTD SVG 1.1//EN" "http://www.w3.org/Graphics/SVG/1.1/DTD/svg11.dtd">
<svg version="1.1" id="Layer_1" xmlns="http://www.w3.org/2000/svg" xmlns:xlink="http://www.w3.org/1999/xlink" x="0px" y="0px"
	 width="60px" height="60px" viewBox="0 0 60 60" enable-background="new 0 0 60 60" xml:space="preserve">
<g>
	<path fill="none" stroke="#FFFFFF" stroke-miterlimit="10" d="M33.579,23.037c0,1.977-1.604,3.579-3.58,3.579
		c-1.975,0-3.578-1.602-3.578-3.579h-5.25V50h5.25c0-1.978,1.604-3.578,3.578-3.578c1.977,0,3.58,1.601,3.58,3.578h5.25V23.037
		H33.579z"/>
	<line fill="none" stroke="#FFFFFF" stroke-miterlimit="10" x1="33.373" y1="30.089" x2="33.373" y2="40.589"/>
	<line fill="none" stroke="#FFFFFF" stroke-miterlimit="10" x1="31.5" y1="30.031" x2="31.5" y2="37.231"/>
	<line fill="none" stroke="#FFFFFF" stroke-miterlimit="10" x1="29.63" y1="30.031" x2="29.63" y2="39.596"/>
	<circle fill="none" stroke="#FFFFFF" stroke-miterlimit="10" cx="30" cy="14.24" r="4.241"/>
	<line fill="none" stroke="#FFFFFF" stroke-miterlimit="10" x1="30.001" y1="11.572" x2="30.001" y2="16.908"/>
	<path fill="none" stroke="#FFFFFF" stroke-linecap="round" stroke-miterlimit="10" d="M28.665,15.79
		c0.251,0.218,0.621,0.387,1.046,0.447c0.85,0.125,1.604-0.224,1.685-0.774c0.234-1.612-3.03-0.803-2.789-2.445
		c0.08-0.55,0.835-0.897,1.685-0.774c0.424,0.063,0.794,0.229,1.045,0.45"/>
</g>
</svg>
