<?xml version="1.0" encoding="utf-8"?>
<!-- Generator: Adobe Illustrator 16.0.0, SVG Export Plug-In . SVG Version: 6.00 Build 0)  -->
<!DOCTYPE svg PUBLIC "-//W3C//DTD SVG 1.1//EN" "http://www.w3.org/Graphics/SVG/1.1/DTD/svg11.dtd">
<svg version="1.1" id="Layer_1" xmlns="http://www.w3.org/2000/svg" xmlns:xlink="http://www.w3.org/1999/xlink" x="0px" y="0px"
	 width="85px" height="85px" viewBox="0 0 85 85" enable-background="new 0 0 85 85" xml:space="preserve">
<g>
	<g>
		<g>
			<g>
				<path fill="none" stroke="#534741" stroke-miterlimit="10" d="M51.06,27.486l0.522-0.781c0.439-0.66,0.262-1.556-0.398-1.999
					c-0.66-0.442-1.558-0.266-2,0.396l-0.525,0.782c-0.295,0.441-0.311,0.994-0.093,1.439l0,0l0.39,0.713l0.805,0.088
					C50.26,28.157,50.761,27.932,51.06,27.486z"/>
			</g>
			<path fill="none" stroke="#534741" stroke-miterlimit="10" d="M37.318,47.997l6.152-5.697c0.307-0.464,0.314-1.041,0.062-1.498
				c-0.002-0.003-0.007-0.006-0.007-0.014c-0.266-0.535-1.978-2.916-2.614-4.194c-0.635-1.274-0.748-2.453,0.797-3.806
				c0,0,4.318-3.842,4.945-4.394c0.629-0.55,2.301-0.358,2.301-0.358l1.757,3.214c0,0,1.102,2.44,2.465,3.139
				c1.364,0.696,3.011,0.929,3.011,0.929"/>
		</g>
		<path fill="none" stroke="#534741" stroke-miterlimit="10" d="M45.318,40.521c1.23-0.079,2.189-1.167,2.189-1.167
			s0.473-2.293,3.915-4.772c3.442-2.48,6.304-2.766,9.153-3.255c0,0,0.65-1.071,1.215-1.105l0.094,1.485
			c0,0,1.311,0.817,1.828,1.273c0.518,0.454,3.361,5.136,3.361,5.136s1.367,2.124,0.181,2.865c-1.185,0.745-2.443-0.41-2.443-0.41
			l-4.257-2.249c0,0-0.836-0.23-0.911-1.395c0,0-1.035-0.13-2.367,3.197c-1.331,3.322-2.019,4.652-2.019,4.652
			s-1.426,2.173,1.428,1.991c2.852-0.181,3.209-0.203,3.209-0.203s1.174-0.152,0.779,0.953c-0.391,1.104-3.516,6.754-3.516,6.754
			l-4.775,0.302c0,0-0.428-1.242,0.174-1.921c0.6-0.683,0.812-0.618,0.812-0.618"/>
		<path fill="none" stroke="#534741" stroke-miterlimit="10" d="M41.285,40.935c0,0-6.828,0-11.5,0s-4.846,8.714-6.423,12.191
			c-1.338,2.95-2.636,2.937-4.919,4.01c-0.594,0.278-1.423,0.162-0.8-0.703c0.622-0.867,1.595-2.435,2.899-6.573
			c1.124-3.568,1.775-8.587,5.938-8.587c2.586,0,2.146,2.586,2.146,4.783c0,2.195,0.209,2.254,1.606,5.248
			c0.286,0.612-6.944,9.233-6.944,9.233"/>
	</g>
</g>
</svg>
