<?xml version="1.0" encoding="utf-8"?>
<!-- Generator: Adobe Illustrator 16.0.0, SVG Export Plug-In . SVG Version: 6.00 Build 0)  -->
<!DOCTYPE svg PUBLIC "-//W3C//DTD SVG 1.1//EN" "http://www.w3.org/Graphics/SVG/1.1/DTD/svg11.dtd">
<svg version="1.1" id="Layer_1" xmlns="http://www.w3.org/2000/svg" xmlns:xlink="http://www.w3.org/1999/xlink" x="0px" y="0px"
	 width="60px" height="60px" viewBox="0 0 60 60" enable-background="new 0 0 60 60" xml:space="preserve">
<g>
	<g>
		<g>
			<g>
				<path fill="none" stroke="#FFFFFF" stroke-miterlimit="10" d="M36.403,18.661l0.393-0.59c0.333-0.499,0.199-1.175-0.3-1.51
					c-0.498-0.334-1.176-0.201-1.511,0.299l-0.396,0.591c-0.223,0.333-0.236,0.75-0.071,1.087l0,0l0.294,0.538l0.608,0.067
					C35.8,19.168,36.179,18.998,36.403,18.661z"/>
			</g>
			<path fill="none" stroke="#FFFFFF" stroke-miterlimit="10" d="M26.027,34.151l4.644-4.302c0.232-0.351,0.239-0.787,0.048-1.132
				c-0.002-0.002-0.004-0.004-0.004-0.01c-0.201-0.405-1.493-2.203-1.975-3.168c-0.48-0.962-0.565-1.853,0.602-2.874
				c0,0,3.26-2.901,3.734-3.318c0.475-0.415,1.736-0.271,1.736-0.271l1.329,2.428c0,0,0.831,1.843,1.86,2.37
				c1.029,0.526,2.273,0.702,2.273,0.702"/>
		</g>
		<path fill="none" stroke="#FFFFFF" stroke-miterlimit="10" d="M32.066,28.506c0.931-0.06,1.655-0.881,1.655-0.881
			s0.355-1.731,2.956-3.604c2.599-1.874,4.76-2.089,6.912-2.458c0,0,0.491-0.81,0.918-0.835l0.07,1.122c0,0,0.991,0.617,1.38,0.961
			c0.392,0.343,2.54,3.878,2.54,3.878s1.032,1.604,0.137,2.164c-0.896,0.563-1.846-0.31-1.846-0.31l-3.217-1.699
			c0,0-0.631-0.174-0.686-1.053c0,0-0.782-0.098-1.788,2.415c-1.007,2.508-1.525,3.513-1.525,3.513s-1.076,1.641,1.078,1.504
			c2.153-0.137,2.425-0.153,2.425-0.153s0.886-0.116,0.587,0.72c-0.295,0.834-2.653,5.101-2.653,5.101l-3.608,0.229
			c0,0-0.322-0.938,0.132-1.452c0.453-0.514,0.614-0.466,0.614-0.466"/>
		<path fill="none" stroke="#FFFFFF" stroke-miterlimit="10" d="M29.021,28.818c0,0-5.157,0-8.686,0
			c-3.528,0-3.659,6.581-4.85,9.207c-1.01,2.229-1.991,2.22-3.714,3.028c-0.448,0.211-1.075,0.123-0.604-0.53
			c0.469-0.655,1.204-1.838,2.189-4.964c0.85-2.695,1.341-6.486,4.484-6.486c1.952,0,1.622,1.953,1.622,3.612
			s0.159,1.702,1.213,3.965c0.215,0.461-5.246,6.973-5.246,6.973"/>
	</g>
</g>
</svg>
