<?xml version="1.0" encoding="utf-8"?>
<!-- Generator: Adobe Illustrator 16.0.0, SVG Export Plug-In . SVG Version: 6.00 Build 0)  -->
<!DOCTYPE svg PUBLIC "-//W3C//DTD SVG 1.1//EN" "http://www.w3.org/Graphics/SVG/1.1/DTD/svg11.dtd">
<svg version="1.1" id="Layer_1" xmlns="http://www.w3.org/2000/svg" xmlns:xlink="http://www.w3.org/1999/xlink" x="0px" y="0px"
	 width="60px" height="60px" viewBox="0 0 60 60" enable-background="new 0 0 60 60" xml:space="preserve">
<g>
	<g>
		<path fill="none" stroke="#FFFFFF" stroke-miterlimit="10" d="M33.104,33.479c-1.716-1.716-4.496-1.716-6.21,0"/>
		<path fill="none" stroke="#FFFFFF" stroke-miterlimit="10" d="M36.207,30.374c-3.429-3.43-8.987-3.43-12.417,0"/>
		<path fill="none" stroke="#FFFFFF" stroke-miterlimit="10" d="M39.313,27.27c-5.146-5.145-13.484-5.144-18.628,0"/>
	</g>
	<g>
		<path fill="none" stroke="#FFFFFF" stroke-miterlimit="10" d="M43.484,46.241c0,0.695-0.563,1.259-1.259,1.259H17.774
			c-0.695,0-1.258-0.563-1.258-1.259V13.758c0-0.695,0.563-1.258,1.258-1.258h24.452c0.695,0,1.259,0.563,1.259,1.258V46.241z"/>
		<rect x="18.792" y="14.849" fill="none" stroke="#FFFFFF" stroke-miterlimit="10" width="22.416" height="26.385"/>
		<circle fill="none" stroke="#FFFFFF" stroke-miterlimit="10" cx="30" cy="44.367" r="1.461"/>
	</g>
</g>
</svg>
