<?xml version="1.0" encoding="utf-8"?>
<!-- Generator: Adobe Illustrator 16.0.0, SVG Export Plug-In . SVG Version: 6.00 Build 0)  -->
<!DOCTYPE svg PUBLIC "-//W3C//DTD SVG 1.1//EN" "http://www.w3.org/Graphics/SVG/1.1/DTD/svg11.dtd">
<svg version="1.1" id="Layer_1" xmlns="http://www.w3.org/2000/svg" xmlns:xlink="http://www.w3.org/1999/xlink" x="0px" y="0px"
	 width="85px" height="85px" viewBox="0 0 85 85" enable-background="new 0 0 85 85" xml:space="preserve">
<g>
	<g>
		<path fill="none" stroke="#534741" stroke-miterlimit="10" d="M46.494,46.977c-2.207-2.207-5.784-2.207-7.99,0"/>
		<path fill="none" stroke="#534741" stroke-miterlimit="10" d="M50.487,42.981c-4.412-4.413-11.564-4.413-15.978,0"/>
		<path fill="none" stroke="#534741" stroke-miterlimit="10" d="M54.483,38.987c-6.62-6.62-17.35-6.619-23.969,0"/>
	</g>
	<g>
		<path fill="none" stroke="#534741" stroke-miterlimit="10" d="M59.851,63.398c0,0.895-0.725,1.619-1.619,1.619H26.769
			c-0.895,0-1.619-0.725-1.619-1.619V21.601c0-0.894,0.725-1.618,1.619-1.618h31.463c0.895,0,1.619,0.725,1.619,1.618V63.398z"/>
		<rect x="28.078" y="23.005" fill="none" stroke="#534741" stroke-miterlimit="10" width="28.843" height="33.95"/>
		<circle fill="none" stroke="#534741" stroke-miterlimit="10" cx="42.5" cy="60.986" r="1.88"/>
	</g>
</g>
</svg>
